<svg width="316" height="316" viewBox="0 0 316 316" fill="none" xmlns="http://www.w3.org/2000/svg">
<path d="M260.978 65.5194C250.684 55.3501 238.757 46.9799 225.693 40.7577C206.241 31.6569 184.809 27.2771 163.378 27.0117C100.741 26.2533 95.9755 99.856 76.7185 110.063C57.4614 120.27 22.5561 121.496 21.349 162.424C20.5969 188.165 26.6009 214.633 43.5006 234.687C58.9719 253.053 81.7113 262.362 104.109 269.238C129.257 276.961 155.933 284.539 182.389 279.35C209.565 274.004 228.62 252.503 250.917 237.98C264.953 228.828 277.555 219.197 286.22 204.521C287.257 202.765 288.234 200.978 289.153 199.162C300.756 176.353 303.057 150.043 296.635 125.364C290.891 103.187 277.928 82.0905 260.978 65.5194Z" fill="#2686FF"/>
<path opacity="0.7" d="M260.978 65.5194C250.684 55.3501 238.757 46.9799 225.693 40.7577C206.241 31.6569 184.809 27.2771 163.378 27.0117C100.741 26.2533 95.9755 99.856 76.7185 110.063C57.4614 120.27 22.5561 121.496 21.349 162.424C20.5969 188.165 26.6009 214.633 43.5006 234.687C58.9719 253.053 81.7113 262.362 104.109 269.238C129.257 276.961 155.933 284.539 182.389 279.35C209.565 274.004 228.62 252.503 250.917 237.98C264.953 228.828 277.555 219.197 286.22 204.521C287.257 202.765 288.234 200.978 289.153 199.162C300.756 176.353 303.057 150.043 296.635 125.364C290.891 103.187 277.928 82.0905 260.978 65.5194Z" fill="white"/>
<path d="M9.72021 292.742H302.614" stroke="#263238" stroke-linecap="round" stroke-linejoin="round"/>
<path d="M260.15 248.098C261.56 248.73 264.998 248.635 265.004 248.635C265.01 248.635 264.265 246.385 264.195 246.246C263.443 244.666 261.035 242.056 259.139 242.322C258.814 242.368 258.503 242.482 258.226 242.657C257.949 242.833 257.712 243.065 257.531 243.338C257.35 243.612 257.229 243.921 257.176 244.244C257.123 244.568 257.14 244.899 257.224 245.216C257.572 246.575 258.95 247.573 260.15 248.098Z" fill="#263238"/>
<path d="M261.338 258.071C262.798 258.279 265.87 257.394 266.116 257.319C266.619 259.078 267.242 260.802 267.981 262.476C268.398 263.455 268.859 264.422 269.327 265.396C269.049 264.985 268.79 264.618 268.752 264.574C267.608 263.247 264.612 261.363 262.811 262.128C262.515 262.264 262.251 262.461 262.035 262.705C261.82 262.95 261.659 263.237 261.562 263.548C261.465 263.859 261.434 264.187 261.472 264.511C261.509 264.835 261.615 265.147 261.781 265.427C262.444 266.641 264.043 267.241 265.339 267.424C266.635 267.608 269.283 266.912 269.978 266.716L270.528 267.822C271.419 269.598 272.316 271.362 273.138 273.119C273.429 273.751 273.694 274.383 273.959 274.977C273.713 274.61 273.498 274.307 273.46 274.262C272.316 272.942 269.321 271.052 267.519 271.823C267.223 271.958 266.959 272.154 266.744 272.398C266.529 272.643 266.368 272.929 266.27 273.24C266.173 273.55 266.143 273.878 266.18 274.201C266.218 274.524 266.323 274.836 266.489 275.116C267.121 276.329 268.752 276.93 270.047 277.119C271.343 277.309 273.738 276.67 274.566 276.443C274.819 277.075 275.072 277.707 275.287 278.339C275.426 278.775 275.59 279.186 275.704 279.603C275.818 280.02 275.95 280.481 276.07 280.911C276.273 281.745 276.481 282.611 276.658 283.439C276.785 284.008 276.892 284.558 277.006 285.108C276.721 284.476 276.146 283.287 276.083 283.212C275.154 281.726 272.481 279.42 270.578 279.894C270.265 279.983 269.975 280.138 269.725 280.347C269.476 280.556 269.274 280.816 269.131 281.108C268.989 281.401 268.909 281.72 268.898 282.046C268.888 282.371 268.945 282.695 269.068 282.997C269.542 284.299 271.027 285.133 272.278 285.525C273.656 285.942 276.702 285.556 277.088 285.525C277.265 286.435 277.435 287.326 277.581 288.166C277.884 289.873 278.118 291.415 278.295 292.742H279.559C279.338 291.364 279.06 289.746 278.706 287.952C278.523 287.029 278.314 286.056 278.074 285.032C278.99 284.661 279.885 284.239 280.753 283.768C281.758 284.855 284.331 286.131 284.659 286.296C284.312 287.155 283.964 287.99 283.623 288.773C282.991 290.258 282.359 291.592 281.803 292.748H283.18C283.654 291.699 284.16 290.518 284.691 289.228C285.051 288.35 285.418 287.414 285.784 286.447C286.151 286.523 289.172 287.136 290.575 286.82C291.839 286.53 293.4 285.809 293.969 284.545C294.114 284.255 294.197 283.937 294.211 283.612C294.225 283.287 294.171 282.963 294.052 282.661C293.933 282.359 293.751 282.085 293.519 281.857C293.287 281.63 293.009 281.454 292.705 281.341C290.847 280.709 288.009 282.826 286.972 284.235C286.909 284.318 286.34 285.297 285.999 285.917C286.144 285.518 286.296 285.139 286.441 284.728C286.739 283.919 287.01 283.104 287.307 282.2C287.434 281.771 287.566 281.341 287.693 280.905C287.819 280.469 287.927 280.001 288.047 279.546C288.3 278.484 288.502 277.397 288.679 276.291C289.387 276.55 291.915 277.435 293.229 277.34C294.544 277.246 296.168 276.772 296.926 275.609C297.113 275.342 297.241 275.039 297.303 274.719C297.365 274.399 297.359 274.07 297.285 273.753C297.211 273.436 297.071 273.137 296.874 272.878C296.677 272.618 296.428 272.403 296.143 272.246C294.398 271.343 291.276 273.005 290.038 274.237C289.955 274.313 289.165 275.299 288.742 275.849C288.849 275.217 288.957 274.528 289.039 273.852C289.279 271.911 289.462 269.933 289.671 267.968L289.861 266.16C290.113 266.255 293.096 267.367 294.563 267.26C295.871 267.171 297.508 266.691 298.26 265.528C298.447 265.262 298.576 264.959 298.638 264.639C298.7 264.32 298.694 263.991 298.621 263.674C298.548 263.357 298.408 263.059 298.212 262.799C298.016 262.539 297.767 262.323 297.483 262.166C295.738 261.269 292.616 262.924 291.371 264.157C291.283 264.252 290.145 265.674 289.873 266.053C290.012 264.732 290.164 263.411 290.366 262.115C290.63 260.367 291.008 258.638 291.497 256.939C291.611 256.984 294.721 258.159 296.225 258.052C297.533 257.963 299.17 257.483 299.922 256.32C300.11 256.054 300.24 255.751 300.302 255.431C300.365 255.112 300.359 254.782 300.286 254.465C300.213 254.147 300.073 253.849 299.876 253.589C299.68 253.33 299.43 253.114 299.145 252.958C297.4 252.06 294.278 253.716 293.033 254.949C292.938 255.05 291.719 256.579 291.516 256.845C291.516 256.743 291.561 256.642 291.592 256.541C292.13 254.851 292.817 253.212 293.646 251.643C294.089 250.771 294.569 249.962 295.043 249.185C295.605 249.463 298.159 250.702 299.524 250.758C300.889 250.815 302.513 250.512 303.392 249.444C303.607 249.199 303.769 248.911 303.865 248.6C303.962 248.288 303.992 247.96 303.953 247.636C303.914 247.312 303.808 247 303.64 246.72C303.473 246.441 303.248 246.199 302.981 246.012C301.35 244.931 298.064 246.233 296.693 247.327C296.617 247.384 295.928 248.072 295.429 248.591C295.65 248.243 295.871 247.883 296.092 247.554C296.914 246.29 297.735 245.235 298.481 244.287C298.905 243.75 299.296 243.269 299.676 242.827C300.364 242.827 303.139 242.732 304.352 242.163C305.566 241.594 306.88 240.571 307.177 239.212C307.253 238.898 307.262 238.572 307.205 238.254C307.147 237.936 307.024 237.634 306.843 237.367C306.662 237.099 306.428 236.872 306.155 236.7C305.882 236.528 305.575 236.415 305.256 236.368C303.31 236.159 300.99 238.833 300.282 240.432C300.219 240.571 299.505 242.846 299.543 242.839H299.568C299.202 243.263 298.81 243.712 298.393 244.217C297.628 245.153 296.775 246.221 295.928 247.447C294.996 248.752 294.141 250.111 293.368 251.517C292.497 253.088 291.768 254.733 291.188 256.434C291.185 256.455 291.185 256.476 291.188 256.497C291.188 255.922 291.188 254.317 291.156 254.19C290.929 252.459 289.475 249.235 287.547 248.875C287.226 248.825 286.897 248.843 286.583 248.928C286.268 249.014 285.975 249.164 285.723 249.369C285.47 249.575 285.263 249.831 285.116 250.122C284.969 250.412 284.884 250.73 284.868 251.055C284.754 252.44 285.759 253.817 286.732 254.689C287.832 255.675 290.884 256.623 291.156 256.699C290.616 258.445 290.194 260.225 289.892 262.027C289.703 263.076 289.545 264.138 289.406 265.187C289.406 264.688 289.406 264.245 289.406 264.182C289.178 262.444 287.724 259.221 285.797 258.867C285.475 258.817 285.146 258.835 284.832 258.92C284.518 259.005 284.225 259.156 283.972 259.361C283.719 259.567 283.513 259.823 283.366 260.113C283.218 260.404 283.134 260.722 283.117 261.047C283.003 262.431 284.002 263.809 284.982 264.681C285.961 265.554 288.559 266.432 289.248 266.647C289.197 267.058 289.14 267.469 289.09 267.911C288.856 269.876 288.628 271.842 288.35 273.763C288.249 274.439 288.129 275.103 288.009 275.767C288.009 275.324 288.009 274.951 288.009 274.894C287.781 273.163 286.328 269.94 284.4 269.579C284.078 269.529 283.749 269.548 283.435 269.633C283.12 269.719 282.828 269.87 282.575 270.076C282.323 270.282 282.117 270.539 281.971 270.831C281.825 271.122 281.742 271.441 281.727 271.766C281.613 273.144 282.612 274.522 283.585 275.394C284.558 276.266 286.909 277.056 287.731 277.321C287.585 277.998 287.44 278.674 287.276 279.325C287.149 279.767 287.055 280.197 286.909 280.633C286.764 281.069 286.631 281.499 286.492 281.897C286.195 282.706 285.898 283.54 285.588 284.324C285.38 284.874 285.171 285.386 284.956 285.91C285.064 285.234 285.241 283.913 285.241 283.806C285.222 282.264 284.806 280.754 284.034 279.42C284.039 279.248 284.028 279.077 284.002 278.908C283.961 278.585 283.853 278.274 283.684 277.995C283.515 277.716 283.289 277.476 283.022 277.29C282.754 277.105 282.451 276.977 282.131 276.916C281.811 276.855 281.481 276.862 281.164 276.936C279.268 277.441 278.067 280.766 278.004 282.516C278.004 282.618 278.067 283.749 278.118 284.457C278.023 284.046 277.935 283.641 277.834 283.193C277.638 282.358 277.41 281.524 277.202 280.633C277.069 280.203 276.943 279.774 276.81 279.331C276.677 278.889 276.5 278.453 276.348 278.01C275.976 276.986 275.546 275.963 275.084 274.945C275.818 274.768 278.415 274.111 279.458 273.308C280.501 272.506 281.594 271.21 281.581 269.826C281.592 269.498 281.532 269.171 281.407 268.868C281.281 268.565 281.093 268.292 280.854 268.067C280.615 267.842 280.33 267.671 280.02 267.565C279.71 267.458 279.38 267.419 279.053 267.45C277.101 267.658 275.413 270.768 275.059 272.506C275.059 272.613 274.92 273.871 274.87 274.566C274.591 273.934 274.313 273.346 274.016 272.739C273.144 270.982 272.209 269.232 271.28 267.487C270.995 266.95 270.717 266.413 270.439 265.876C270.698 265.813 273.801 265.099 274.971 264.201C276.007 263.405 277.107 262.103 277.101 260.719C277.109 260.391 277.048 260.066 276.922 259.764C276.796 259.461 276.607 259.189 276.368 258.965C276.13 258.74 275.846 258.569 275.537 258.462C275.227 258.354 274.899 258.314 274.573 258.342C272.626 258.551 270.932 261.66 270.578 263.398C270.578 263.525 270.389 265.339 270.37 265.8C269.738 264.618 269.156 263.436 268.606 262.248C267.868 260.644 267.235 258.993 266.71 257.306C266.831 257.274 270.073 256.541 271.267 255.618C272.304 254.822 273.403 253.52 273.397 252.136C273.405 251.809 273.344 251.483 273.218 251.181C273.092 250.879 272.904 250.606 272.665 250.382C272.426 250.158 272.143 249.986 271.833 249.879C271.524 249.772 271.195 249.731 270.869 249.76C268.922 249.975 267.229 253.078 266.875 254.816C266.875 254.949 266.673 256.895 266.666 257.255C266.635 257.154 266.59 257.059 266.565 256.958C266.078 255.252 265.746 253.504 265.573 251.738C265.465 250.765 265.415 249.842 265.383 248.919C266.015 248.843 268.821 248.464 269.991 247.756C271.16 247.049 272.348 245.905 272.519 244.533C272.563 244.21 272.539 243.881 272.448 243.568C272.357 243.255 272.202 242.965 271.991 242.715C271.781 242.466 271.521 242.264 271.227 242.122C270.934 241.98 270.613 241.902 270.288 241.891C268.328 241.891 266.306 244.792 265.762 246.454C265.762 246.549 265.541 247.504 265.402 248.199C265.402 247.788 265.402 247.358 265.402 246.966C265.402 245.481 265.503 244.122 265.592 242.922C265.655 242.239 265.718 241.658 265.788 241.026C266.357 240.634 268.625 239.028 269.321 237.866C270.016 236.703 270.585 235.142 270.047 233.852C269.938 233.55 269.767 233.273 269.545 233.04C269.322 232.807 269.054 232.623 268.757 232.499C268.46 232.376 268.14 232.315 267.818 232.322C267.496 232.328 267.179 232.402 266.887 232.538C265.143 233.442 264.688 236.962 264.991 238.675C264.991 238.826 265.674 241.114 265.706 241.095H265.743C265.661 241.645 265.585 242.239 265.516 242.89C265.402 244.097 265.276 245.456 265.238 246.941C265.182 248.545 265.223 250.151 265.358 251.751C265.498 253.543 265.794 255.319 266.243 257.059V257.116C265.933 256.636 265.023 255.309 264.941 255.22C263.797 253.893 260.808 252.01 259 252.774C258.704 252.91 258.44 253.107 258.224 253.352C258.009 253.597 257.848 253.884 257.751 254.195C257.654 254.506 257.623 254.834 257.661 255.157C257.698 255.481 257.804 255.793 257.97 256.074C258.45 257.281 260.043 257.856 261.338 258.071Z" fill="#263238"/>
<path d="M294.967 248.856C294.967 248.856 295.599 246.568 295.599 246.417C295.839 244.685 295.289 241.19 293.526 240.337C293.229 240.204 292.907 240.135 292.581 240.134C292.256 240.133 291.933 240.201 291.636 240.332C291.338 240.464 291.071 240.657 290.852 240.898C290.633 241.14 290.468 241.424 290.366 241.734C289.892 243.035 290.493 244.634 291.2 245.734C292.054 247.023 294.967 248.856 294.967 248.856Z" fill="#263238"/>
<path d="M234.472 188.336C235.477 188.779 237.942 188.722 237.942 188.722C237.942 188.722 237.411 187.11 237.367 187.015C236.823 185.884 235.117 184.02 233.733 184.209C233.502 184.246 233.282 184.331 233.087 184.459C232.892 184.587 232.726 184.754 232.6 184.95C232.475 185.147 232.391 185.367 232.357 185.598C232.322 185.829 232.337 186.064 232.399 186.289C232.639 187.218 233.625 187.932 234.472 188.336Z" fill="#263238"/>
<path d="M235.332 195.427C236.374 195.579 238.567 194.947 238.744 194.896C239.101 196.151 239.545 197.38 240.072 198.574C240.375 199.276 240.704 199.971 241.039 200.666C240.836 200.369 240.653 200.11 240.628 200.078C239.806 199.13 237.67 197.784 236.381 198.328C236.17 198.426 235.981 198.566 235.828 198.741C235.674 198.916 235.559 199.121 235.489 199.343C235.42 199.565 235.397 199.799 235.423 200.03C235.449 200.261 235.524 200.484 235.641 200.685C236.122 201.551 237.259 201.949 238.169 202.114C239.079 202.278 240.988 201.747 241.487 201.608C241.614 201.873 241.746 202.139 241.879 202.398C242.511 203.662 243.143 204.926 243.744 206.19C243.952 206.632 244.135 207.075 244.331 207.517L243.971 207.005C243.156 206.064 241.013 204.717 239.724 205.261C239.513 205.358 239.324 205.499 239.171 205.674C239.017 205.849 238.902 206.054 238.833 206.277C238.764 206.499 238.742 206.733 238.77 206.964C238.797 207.195 238.872 207.418 238.991 207.618C239.465 208.484 240.609 208.914 241.519 209.047C242.614 209.055 243.703 208.893 244.748 208.566C244.932 209.021 245.109 209.483 245.267 209.938C245.368 210.247 245.482 210.57 245.564 210.86C245.646 211.151 245.734 211.492 245.823 211.796C245.968 212.39 246.12 213.009 246.246 213.597C246.335 214.001 246.411 214.393 246.493 214.785C246.29 214.343 245.861 213.521 245.861 213.42C245.229 212.358 243.288 210.702 241.93 211.05C241.706 211.114 241.498 211.224 241.319 211.373C241.14 211.523 240.995 211.708 240.892 211.917C240.79 212.126 240.733 212.355 240.724 212.587C240.715 212.82 240.756 213.052 240.843 213.268C241.184 214.197 242.246 214.791 243.143 215.07C244.041 215.348 246.303 215.07 246.575 215.07C246.708 215.702 246.828 216.334 246.929 216.966C247.144 218.185 247.314 219.285 247.441 220.239H248.376C248.218 219.253 248.022 218.097 247.744 216.814C247.618 216.15 247.466 215.449 247.302 214.728C247.951 214.465 248.584 214.164 249.198 213.824C250.042 214.549 250.982 215.155 251.991 215.626C251.745 216.258 251.492 216.839 251.245 217.395C250.784 218.457 250.348 219.411 249.95 220.239H250.936C251.271 219.487 251.637 218.647 252.016 217.711C252.269 217.079 252.535 216.416 252.794 215.727C253.059 215.784 255.214 216.22 256.219 215.992C257.224 215.765 258.235 215.272 258.646 214.368C258.749 214.16 258.807 213.932 258.816 213.699C258.825 213.467 258.785 213.235 258.698 213.02C258.612 212.804 258.481 212.609 258.314 212.447C258.147 212.285 257.948 212.16 257.73 212.08C256.402 211.631 254.374 213.142 253.628 214.147C253.584 214.21 253.179 214.905 252.933 215.348C253.04 215.063 253.148 214.791 253.249 214.501C253.464 213.919 253.66 213.338 253.881 212.712C253.976 212.402 254.064 212.08 254.159 211.783C254.254 211.486 254.323 211.151 254.412 210.816C254.589 210.058 254.734 209.28 254.867 208.49C255.372 208.674 257.18 209.306 258.115 209.236C259.051 209.167 260.22 208.832 260.757 208.004C260.891 207.813 260.983 207.596 261.027 207.367C261.072 207.139 261.068 206.903 261.015 206.676C260.963 206.449 260.863 206.235 260.723 206.049C260.583 205.863 260.405 205.709 260.201 205.596C258.937 204.964 256.725 206.139 255.834 207.024C255.783 207.075 255.202 207.783 254.911 208.174C254.987 207.7 255.063 207.226 255.126 206.746C255.296 205.362 255.429 203.946 255.562 202.537L255.695 201.273C255.878 201.342 258.008 202.139 259.057 202.063C259.992 202 261.161 201.652 261.699 200.799C261.832 200.609 261.924 200.392 261.969 200.164C262.013 199.936 262.009 199.701 261.957 199.474C261.904 199.247 261.804 199.035 261.664 198.849C261.524 198.663 261.346 198.51 261.143 198.397C259.879 197.765 257.667 198.941 256.775 199.819C256.712 199.889 255.897 200.9 255.707 201.172C255.808 200.224 255.916 199.276 256.061 198.359C256.249 197.109 256.517 195.872 256.864 194.656C256.952 194.688 259.171 195.528 260.245 195.452C261.18 195.389 262.35 195.041 262.887 194.188C263.02 193.998 263.112 193.782 263.157 193.553C263.201 193.325 263.197 193.09 263.145 192.863C263.092 192.637 262.993 192.424 262.852 192.238C262.712 192.053 262.534 191.899 262.331 191.787C261.067 191.155 258.855 192.324 257.964 193.209C257.894 193.278 257.022 194.372 256.883 194.58C256.883 194.511 256.883 194.435 256.933 194.365C257.319 193.157 257.809 191.986 258.4 190.864C258.722 190.232 259.032 189.663 259.405 189.107C259.803 189.303 261.629 190.194 262.602 190.232C263.576 190.27 264.739 190.055 265.364 189.29C265.518 189.116 265.632 188.911 265.701 188.689C265.77 188.467 265.791 188.233 265.764 188.003C265.737 187.772 265.661 187.55 265.542 187.35C265.423 187.15 265.263 186.978 265.074 186.844C263.911 186.067 261.56 186.996 260.58 187.78C260.529 187.824 260.037 188.311 259.676 188.677C259.841 188.424 259.999 188.165 260.157 187.931C260.738 187.053 261.332 186.276 261.863 185.599C262.166 185.214 262.444 184.873 262.716 184.557C263.209 184.557 265.187 184.487 266.053 184.083C266.919 183.678 267.867 182.945 268.076 181.972C268.131 181.745 268.138 181.51 268.096 181.281C268.055 181.052 267.966 180.834 267.835 180.642C267.704 180.449 267.533 180.286 267.335 180.164C267.137 180.041 266.916 179.962 266.685 179.93C265.295 179.785 263.639 181.694 263.127 182.838C263.083 182.932 262.577 184.557 262.602 184.557L261.762 185.542C261.218 186.212 260.612 186.971 260.005 187.843C259.338 188.777 258.726 189.75 258.172 190.756C257.552 191.881 257.029 193.056 256.611 194.27C256.614 194.285 256.614 194.3 256.611 194.315C256.611 193.904 256.611 192.754 256.611 192.665C256.447 191.401 255.41 189.126 254.033 188.873C253.804 188.84 253.571 188.856 253.348 188.918C253.126 188.98 252.918 189.088 252.74 189.235C252.562 189.382 252.416 189.565 252.312 189.771C252.208 189.978 252.148 190.203 252.137 190.434C252.054 191.42 252.769 192.406 253.47 193.032C254.172 193.657 256.434 194.409 256.63 194.466C256.238 195.708 255.93 196.975 255.707 198.258C255.575 199.01 255.461 199.769 255.36 200.534C255.36 200.18 255.36 199.857 255.36 199.813C255.202 198.549 254.159 196.268 252.781 196.021C252.552 195.987 252.319 196.002 252.096 196.064C251.873 196.126 251.665 196.234 251.487 196.381C251.308 196.528 251.162 196.711 251.059 196.918C250.955 197.125 250.896 197.351 250.885 197.582C250.803 198.568 251.517 199.554 252.212 200.18C252.908 200.805 254.74 201.444 255.259 201.583C255.227 201.873 255.183 202.17 255.151 202.461C254.981 203.864 254.823 205.274 254.62 206.645C254.551 207.125 254.462 207.599 254.38 208.073C254.38 207.757 254.38 207.492 254.38 207.441C254.216 206.177 253.179 203.896 251.802 203.649C251.573 203.616 251.34 203.632 251.117 203.694C250.895 203.756 250.687 203.865 250.509 204.011C250.331 204.158 250.185 204.341 250.081 204.547C249.977 204.754 249.917 204.98 249.906 205.21C249.823 206.196 250.538 207.182 251.239 207.802C252.147 208.412 253.145 208.877 254.197 209.179C254.096 209.666 253.995 210.146 253.875 210.614C253.78 210.924 253.717 211.246 253.609 211.543C253.502 211.84 253.413 212.175 253.312 212.466C253.103 213.047 252.889 213.641 252.68 214.204C252.535 214.596 252.383 214.962 252.231 215.335C252.307 214.855 252.44 213.913 252.44 213.831C252.428 212.721 252.13 211.632 251.574 210.671C251.587 210.549 251.587 210.426 251.574 210.304C251.545 210.073 251.467 209.851 251.347 209.652C251.226 209.453 251.064 209.282 250.873 209.15C250.682 209.017 250.464 208.927 250.236 208.884C250.007 208.841 249.772 208.847 249.545 208.901C248.187 209.261 247.333 211.638 247.264 212.883C247.264 212.959 247.308 213.761 247.352 214.273C247.283 213.976 247.22 213.692 247.144 213.388C247.005 212.788 246.847 212.194 246.676 211.556C246.579 211.252 246.484 210.943 246.392 210.627C246.309 210.317 246.177 209.995 246.069 209.685C245.798 208.952 245.494 208.219 245.166 207.492C245.69 207.365 247.548 206.898 248.288 206.323C249.027 205.748 249.817 204.825 249.811 203.833C249.818 203.6 249.776 203.369 249.687 203.154C249.598 202.939 249.465 202.745 249.296 202.585C249.127 202.425 248.926 202.302 248.707 202.225C248.487 202.149 248.254 202.119 248.022 202.139C246.625 202.29 245.418 204.509 245.166 205.735C245.166 205.811 245.064 206.708 245.033 207.201C244.831 206.765 244.635 206.329 244.401 205.899C243.769 204.635 243.137 203.371 242.448 202.145C242.246 201.76 242.043 201.38 241.848 200.995C242.031 200.951 244.249 200.439 245.083 199.794C245.918 199.149 246.613 198.296 246.607 197.31C246.613 197.077 246.57 196.845 246.48 196.63C246.391 196.415 246.257 196.221 246.088 196.06C245.919 195.9 245.718 195.777 245.498 195.699C245.278 195.622 245.044 195.592 244.812 195.61C243.421 195.762 242.214 197.98 241.961 199.206C241.961 199.301 241.822 200.59 241.81 200.925C241.374 200.078 240.944 199.232 240.546 198.397C240.014 197.251 239.558 196.071 239.181 194.864C239.263 194.864 241.582 194.315 242.435 193.664C243.175 193.095 243.965 192.16 243.958 191.174C243.964 190.941 243.921 190.709 243.832 190.493C243.743 190.278 243.609 190.084 243.44 189.924C243.271 189.763 243.069 189.64 242.85 189.563C242.63 189.485 242.396 189.455 242.164 189.474C240.773 189.625 239.566 191.844 239.313 193.07C239.313 193.164 239.168 194.561 239.162 194.814C239.162 194.744 239.111 194.675 239.092 194.605C238.742 193.387 238.503 192.138 238.378 190.877C238.302 190.175 238.264 189.511 238.245 188.854C238.688 188.804 240.704 188.532 241.538 188.026C242.372 187.521 243.219 186.705 243.32 185.719C243.354 185.488 243.339 185.252 243.275 185.027C243.211 184.802 243.1 184.593 242.95 184.414C242.799 184.235 242.613 184.089 242.402 183.988C242.191 183.886 241.961 183.83 241.727 183.823C240.324 183.823 238.883 185.896 238.498 187.085C238.498 187.154 238.334 187.83 238.239 188.349C238.239 188.058 238.239 187.717 238.239 187.47C238.239 186.408 238.308 185.441 238.372 184.582C238.416 184.095 238.46 183.653 238.511 183.242C238.915 182.964 240.539 181.82 241.039 180.998C241.538 180.177 241.923 179.052 241.563 178.129C241.485 177.91 241.362 177.71 241.201 177.541C241.041 177.373 240.846 177.24 240.631 177.152C240.416 177.064 240.185 177.022 239.952 177.029C239.719 177.036 239.491 177.092 239.282 177.194C238.018 177.826 237.708 180.354 237.917 181.574C237.917 181.681 238.403 183.318 238.422 183.305C238.365 183.703 238.315 184.127 238.264 184.569C238.176 185.429 238.087 186.402 238.062 187.464C238.025 188.61 238.052 189.758 238.144 190.902C238.244 192.182 238.455 193.451 238.776 194.694C238.779 194.708 238.779 194.723 238.776 194.738C238.555 194.39 237.91 193.474 237.853 193.379C237.032 192.431 234.896 191.085 233.606 191.629C233.395 191.726 233.207 191.867 233.053 192.042C232.9 192.217 232.784 192.422 232.715 192.644C232.645 192.866 232.623 193.1 232.649 193.331C232.675 193.562 232.749 193.785 232.867 193.986C233.265 194.864 234.403 195.288 235.332 195.427Z" fill="#263238"/>
<path d="M259.36 188.848C259.36 188.848 259.809 187.211 259.822 187.104C259.992 185.84 259.6 183.369 258.336 182.762C258.124 182.666 257.894 182.616 257.661 182.615C257.428 182.614 257.198 182.663 256.985 182.757C256.772 182.851 256.582 182.989 256.426 183.162C256.27 183.335 256.152 183.539 256.08 183.76C255.739 184.689 256.169 185.827 256.681 186.611C257.275 187.533 259.36 188.848 259.36 188.848Z" fill="#263238"/>
<path d="M58.8709 248.098C57.4678 248.73 54.0234 248.635 54.0234 248.635C54.0234 248.635 54.7629 246.385 54.8261 246.246C55.5845 244.666 57.9861 242.056 59.8821 242.322C60.2065 242.37 60.5171 242.486 60.7932 242.663C61.0693 242.84 61.3047 243.074 61.4839 243.349C61.6631 243.623 61.7819 243.933 61.8326 244.257C61.8834 244.581 61.8648 244.912 61.7781 245.229C61.4558 246.575 60.0717 247.573 58.8709 248.098Z" fill="#263238"/>
<path d="M57.6827 258.071C56.2291 258.279 53.1513 257.394 52.9111 257.319C52.3929 259.077 51.7595 260.8 51.0151 262.476C50.5917 263.455 50.1367 264.422 49.669 265.396C49.9471 264.985 50.1999 264.618 50.2441 264.574C51.388 263.247 54.3774 261.363 56.1849 262.128C56.4854 262.261 56.7545 262.456 56.9742 262.7C57.1939 262.944 57.3594 263.232 57.4597 263.545C57.56 263.858 57.5929 264.189 57.5562 264.515C57.5195 264.842 57.414 265.157 57.2467 265.44C56.5767 266.653 54.9841 267.254 53.6885 267.437C52.3929 267.62 49.7385 266.925 49.0433 266.729C48.86 267.096 48.6831 267.468 48.4935 267.835C47.6087 269.611 46.7112 271.374 45.8833 273.131C45.5926 273.763 45.3335 274.395 45.068 274.989C45.3145 274.623 45.5294 274.319 45.5673 274.275C46.7112 272.954 49.7006 271.065 51.5081 271.836C51.804 271.971 52.0681 272.167 52.2833 272.411C52.4985 272.655 52.6599 272.942 52.7571 273.252C52.8542 273.563 52.8849 273.89 52.8472 274.214C52.8095 274.537 52.7043 274.848 52.5382 275.128C51.8683 276.342 50.2694 276.942 48.9801 277.132C47.6908 277.321 45.2892 276.683 44.4613 276.456C44.2085 277.088 43.9494 277.72 43.7345 278.352C43.5955 278.788 43.4311 279.198 43.3174 279.616L42.9761 280.962C42.7739 281.796 42.559 282.662 42.3883 283.49C42.2619 284.058 42.1482 284.608 42.0344 285.158C42.3188 284.526 42.9003 283.338 42.9571 283.262C43.8925 281.777 46.5595 279.47 48.4619 279.944C48.7754 280.033 49.0667 280.187 49.3167 280.396C49.5667 280.605 49.7699 280.864 49.913 281.157C50.0561 281.45 50.136 281.77 50.1473 282.095C50.1586 282.421 50.1011 282.745 49.9787 283.047C49.5047 284.349 48.0131 285.183 46.7681 285.575C45.3903 285.992 42.3441 285.607 41.9586 285.575C41.7753 286.485 41.6047 287.376 41.4593 288.217C41.1623 289.923 40.9284 291.466 40.7451 292.793H39.4811C39.696 291.415 39.9741 289.797 40.328 288.002C40.5113 287.079 40.7262 286.106 40.96 285.082C40.0436 284.712 39.149 284.29 38.2803 283.818C37.2755 284.905 34.7032 286.182 34.3683 286.346C34.7222 287.206 35.0698 288.04 35.4111 288.824C36.0431 290.309 36.6751 291.642 37.2249 292.799H35.8092C35.3415 291.75 34.8296 290.568 34.3051 289.279C33.9448 288.4 33.5783 287.465 33.2117 286.498C32.8388 286.574 29.8242 287.187 28.4148 286.871C27.1508 286.58 25.5961 285.86 25.021 284.596C24.8765 284.305 24.7947 283.987 24.7808 283.663C24.767 283.338 24.8214 283.015 24.9405 282.713C25.0597 282.41 25.2409 282.137 25.4725 281.909C25.7041 281.682 25.9809 281.505 26.285 281.391C28.1431 280.759 30.9807 282.877 32.0235 284.286C32.0804 284.368 32.6555 285.348 32.9968 285.967C32.8451 285.569 32.6998 285.19 32.5481 284.779C32.2511 283.97 31.9793 283.155 31.6886 282.251C31.5559 281.821 31.4295 281.391 31.2967 280.955C31.164 280.519 31.0692 280.052 30.9491 279.597C30.6963 278.535 30.4878 277.448 30.3171 276.342C29.6093 276.601 27.075 277.486 25.7667 277.391C24.4585 277.296 22.8216 276.822 22.0695 275.659C21.8826 275.393 21.7539 275.09 21.6917 274.77C21.6295 274.451 21.6353 274.122 21.7086 273.805C21.7819 273.488 21.9211 273.189 22.1173 272.93C22.3134 272.67 22.562 272.454 22.8469 272.297C24.5912 271.393 27.7196 273.055 28.9583 274.288C29.0342 274.364 29.8242 275.35 30.2223 275.899C30.1212 275.267 30.0138 274.578 29.9316 273.902C29.6915 271.962 29.5019 269.984 29.2996 268.018C29.2427 267.386 29.1732 266.811 29.11 266.211C28.8635 266.306 25.8742 267.418 24.4079 267.31C23.106 267.222 21.4691 266.742 20.7107 265.579C20.5241 265.312 20.3957 265.009 20.334 264.689C20.2722 264.369 20.2785 264.04 20.3525 263.723C20.4264 263.406 20.5663 263.108 20.763 262.848C20.9598 262.589 21.209 262.373 21.4944 262.217C23.2324 261.319 26.3608 262.975 27.5995 264.207C27.6943 264.302 28.8635 265.724 29.1037 266.103C28.9583 264.782 28.813 263.462 28.6044 262.166C28.3425 260.418 27.9667 258.689 27.4795 256.99C27.3594 257.034 24.2499 258.21 22.7458 258.102C21.4439 258.014 19.807 257.533 19.0486 256.371C18.8619 256.104 18.7335 255.8 18.6718 255.481C18.6101 255.161 18.6164 254.832 18.6903 254.515C18.7642 254.197 18.9041 253.899 19.1009 253.64C19.2976 253.38 19.5468 253.165 19.8323 253.008C21.5703 252.111 24.6987 253.767 25.9374 254.999C26.0385 255.1 27.2583 256.63 27.4605 256.895C27.4289 256.794 27.4099 256.693 27.3783 256.592C26.8428 254.901 26.1575 253.262 25.3307 251.694C24.8819 250.822 24.4079 250.013 23.9276 249.235C23.3715 249.513 20.8119 250.752 19.4467 250.809C18.0816 250.866 16.4637 250.562 15.5852 249.494C15.3704 249.249 15.2094 248.962 15.1127 248.651C15.016 248.34 14.9858 248.012 15.0239 247.689C15.062 247.365 15.1677 247.053 15.3341 246.773C15.5005 246.493 15.7238 246.251 15.9897 246.063C17.6266 244.982 20.913 246.284 22.3097 247.377C22.3855 247.434 23.0744 248.123 23.5737 248.641C23.3525 248.294 23.125 247.933 22.9417 247.605C22.1201 246.341 21.2922 245.285 20.5527 244.337C20.1293 243.8 19.7311 243.32 19.3583 242.877C18.6694 242.877 15.8949 242.783 14.6815 242.214C13.468 241.645 12.1535 240.621 11.8564 239.262C11.7729 238.945 11.7577 238.613 11.8117 238.289C11.8658 237.964 11.9879 237.655 12.17 237.382C12.3521 237.109 12.5901 236.877 12.8683 236.702C13.1465 236.527 13.4586 236.413 13.784 236.368C15.7369 236.159 18.05 238.833 18.7642 240.432C18.8274 240.571 19.5415 242.846 19.5036 242.839H19.4594C19.8323 243.263 20.2241 243.712 20.6412 244.217C21.3996 245.153 22.2528 246.221 23.106 247.447C24.0291 248.752 24.8733 250.111 25.634 251.517C26.507 253.088 27.2388 254.733 27.8207 256.434V256.497C27.8207 255.922 27.8207 254.317 27.8207 254.19C28.0419 252.458 29.5019 249.235 31.4295 248.875C31.7511 248.824 32.0799 248.841 32.3943 248.926C32.7087 249.011 33.0017 249.161 33.254 249.367C33.5064 249.573 33.7124 249.83 33.8587 250.121C34.005 250.412 34.0882 250.73 34.1028 251.055C34.2166 252.44 33.218 253.817 32.2447 254.689C31.1451 255.675 28.0862 256.623 27.8207 256.699C28.3582 258.446 28.7804 260.225 29.0847 262.027C29.2743 263.076 29.426 264.138 29.5714 265.187C29.5714 264.688 29.5714 264.245 29.5714 264.182C29.7989 262.444 31.2525 259.221 33.1801 258.867C33.5165 258.788 33.8664 258.785 34.204 258.858C34.5417 258.932 34.8586 259.08 35.1314 259.292C35.4042 259.505 35.626 259.775 35.7805 260.084C35.935 260.394 36.0182 260.733 36.0241 261.079C36.1379 262.463 35.1393 263.841 34.166 264.713C33.1927 265.585 30.5889 266.464 29.9 266.678C29.9506 267.089 30.0075 267.5 30.0517 267.942C30.2919 269.908 30.5131 271.874 30.7975 273.795C30.8923 274.471 31.0187 275.135 31.1387 275.798C31.1387 275.356 31.1387 274.983 31.1387 274.926C31.3663 273.194 32.8199 269.971 34.7538 269.611C35.0726 269.562 35.3981 269.58 35.7097 269.664C36.0212 269.747 36.3119 269.895 36.5633 270.097C36.8147 270.299 37.0213 270.551 37.1701 270.838C37.3188 271.124 37.4063 271.438 37.4271 271.76C37.5409 273.138 36.5423 274.515 35.5627 275.387C34.5831 276.26 32.2384 277.05 31.4231 277.315C31.5685 277.991 31.7075 278.668 31.8782 279.318C32.0046 279.761 32.0931 280.191 32.2447 280.627C32.3964 281.063 32.5228 281.493 32.6619 281.891C32.9526 282.7 33.2559 283.534 33.5593 284.318C33.7679 284.867 33.9827 285.379 34.1913 285.904C34.0839 285.228 33.9069 283.907 33.9006 283.799C33.9224 282.258 34.3379 280.748 35.1077 279.413C35.1056 279.242 35.1162 279.071 35.1393 278.901C35.1803 278.578 35.2887 278.267 35.4576 277.989C35.6264 277.71 35.8519 277.47 36.1194 277.284C36.3869 277.098 36.6905 276.971 37.0105 276.909C37.3305 276.848 37.6598 276.855 37.977 276.93C39.873 277.435 41.0738 280.759 41.137 282.51C41.137 282.611 41.0738 283.742 41.0169 284.45C41.1117 284.04 41.2002 283.635 41.3076 283.186C41.5035 282.352 41.7247 281.518 41.9396 280.627C42.066 280.197 42.1987 279.767 42.3315 279.325C42.4642 278.882 42.6348 278.446 42.7865 278.004C43.1657 276.98 43.587 275.958 44.0505 274.939C43.3111 274.762 40.7199 274.104 39.6771 273.302C38.6343 272.499 37.5409 271.204 37.5472 269.82C37.5378 269.492 37.598 269.166 37.7238 268.863C37.8497 268.56 38.0382 268.288 38.2771 268.063C38.516 267.839 38.7997 267.667 39.1097 267.56C39.4196 267.454 39.7487 267.414 40.0752 267.443C42.0218 267.652 43.7155 270.761 44.0695 272.499C44.0695 272.607 44.2085 273.864 44.2591 274.56C44.5371 273.928 44.8089 273.34 45.1123 272.733C45.9844 270.976 46.9198 269.225 47.8488 267.481C48.1332 266.944 48.405 266.407 48.6894 265.87C48.4239 265.806 45.3208 265.092 44.1579 264.195C43.1151 263.398 42.0155 262.096 42.0281 260.712C42.0177 260.384 42.0772 260.058 42.2027 259.755C42.3281 259.451 42.5167 259.178 42.7558 258.954C42.9949 258.729 43.2791 258.558 43.5895 258.451C43.8999 258.345 44.2294 258.305 44.5561 258.336C46.509 258.545 48.1964 261.654 48.5503 263.392C48.5503 263.518 48.7463 265.332 48.7652 265.794C49.3972 264.612 49.9787 263.43 50.5222 262.242C51.2578 260.636 51.8911 258.985 52.4182 257.3C52.2981 257.268 49.0559 256.535 47.8615 255.612C46.8187 254.816 45.719 253.514 45.7316 252.13C45.7222 251.802 45.7824 251.476 45.9082 251.173C46.0341 250.871 46.2226 250.598 46.4615 250.373C46.7004 250.149 46.9841 249.978 47.2941 249.871C47.604 249.764 47.9331 249.724 48.2596 249.754C50.2125 249.968 51.9063 253.072 52.2602 254.81C52.2602 254.942 52.4624 256.889 52.4687 257.249C52.4687 257.148 52.5383 257.053 52.5699 256.952C53.0511 255.244 53.3831 253.497 53.5621 251.732C53.6695 250.758 53.7201 249.836 53.7454 248.913C53.1134 248.837 50.3073 248.458 49.1444 247.75C47.9815 247.042 46.7871 245.898 46.6164 244.527C46.572 244.204 46.5958 243.876 46.6862 243.563C46.7766 243.251 46.9317 242.96 47.1414 242.711C47.3511 242.462 47.6107 242.26 47.9035 242.118C48.1963 241.976 48.5157 241.896 48.8411 241.885C50.8066 241.885 52.829 244.786 53.3662 246.448C53.3662 246.543 53.5937 247.497 53.7264 248.192C53.7264 247.782 53.7264 247.352 53.7264 246.96C53.7264 245.475 53.6316 244.116 53.5368 242.915C53.4799 242.233 53.4104 241.651 53.3472 241.019C52.7784 240.627 50.5095 239.022 49.8143 237.859C49.1191 236.696 48.5503 235.135 49.0812 233.846C49.1943 233.535 49.3722 233.252 49.6033 233.016C49.8344 232.779 50.1132 232.595 50.4212 232.475C50.7292 232.354 51.0594 232.301 51.3895 232.319C51.7197 232.336 52.0424 232.424 52.336 232.576C54.074 233.48 54.5354 237 54.232 238.712C54.232 238.864 53.5495 241.152 53.5179 241.133C53.5937 241.683 53.6695 242.277 53.7391 242.928C53.8591 244.135 53.9855 245.494 54.0171 246.979C54.0716 248.583 54.0336 250.189 53.9034 251.789C53.7642 253.581 53.466 255.358 53.0122 257.097V257.154C53.3219 256.674 54.2257 255.347 54.3079 255.258C55.4581 253.931 58.4474 252.048 60.255 252.812C60.5505 252.949 60.8141 253.146 61.0287 253.391C61.2433 253.636 61.404 253.923 61.5005 254.234C61.597 254.545 61.6272 254.873 61.589 255.196C61.5508 255.52 61.4451 255.831 61.2788 256.111C60.5773 257.281 58.9783 257.856 57.6827 258.071Z" fill="#263238"/>
<path d="M24.0602 248.856C24.0602 248.856 23.4282 246.568 23.4282 246.417C23.1881 244.685 23.7442 241.19 25.5075 240.337C25.8048 240.204 26.1267 240.135 26.4524 240.134C26.7781 240.133 27.1003 240.201 27.3982 240.332C27.6961 240.464 27.963 240.657 28.1817 240.898C28.4003 241.14 28.5659 241.424 28.6675 241.734C29.1352 243.035 28.5411 244.634 27.827 245.734C26.9738 247.023 24.0602 248.856 24.0602 248.856Z" fill="#263238"/>
<path d="M84.5427 188.336C83.5378 188.779 81.0793 188.722 81.0793 188.722C81.0793 188.722 81.6039 187.11 81.6545 187.015C82.1917 185.884 83.8981 184.02 85.2885 184.209C85.5182 184.247 85.7374 184.332 85.9317 184.461C86.1261 184.589 86.2913 184.756 86.4166 184.952C86.5418 185.149 86.6242 185.369 86.6586 185.599C86.6929 185.829 86.6783 186.064 86.6157 186.289C86.3882 187.218 85.4022 187.932 84.5427 188.336Z" fill="#263238"/>
<path d="M83.6959 195.427C82.6531 195.579 80.46 194.947 80.2831 194.896C79.9211 196.151 79.4756 197.379 78.9496 198.574C78.6525 199.276 78.3176 199.971 77.9889 200.666C78.1912 200.369 78.3681 200.11 78.3997 200.078C79.215 199.13 81.3575 197.784 82.6468 198.328C82.8581 198.425 83.0465 198.566 83.2 198.741C83.3534 198.916 83.4684 199.121 83.5376 199.343C83.6067 199.566 83.6283 199.8 83.6012 200.031C83.574 200.262 83.4986 200.485 83.3799 200.685C82.9059 201.551 81.762 201.949 80.8519 202.114C79.9418 202.278 78.0332 201.747 77.5339 201.608C77.4012 201.873 77.2748 202.139 77.142 202.398C76.51 203.662 75.878 204.926 75.246 206.19C75.0375 206.632 74.8479 207.075 74.6583 207.517L75.0122 207.005C75.8338 206.064 77.97 204.717 79.2592 205.261C79.4704 205.359 79.6588 205.499 79.8124 205.674C79.9659 205.849 80.0812 206.054 80.1508 206.276C80.2205 206.498 80.2429 206.732 80.2167 206.963C80.1905 207.194 80.1162 207.417 79.9987 207.618C79.5184 208.484 78.3808 208.914 77.4707 209.047C76.3778 209.055 75.2903 208.893 74.2475 208.566C74.0642 209.021 73.8809 209.483 73.7292 209.938C73.6281 210.247 73.5144 210.57 73.4322 210.86L73.1668 211.796C73.0277 212.39 72.876 213.009 72.7496 213.597C72.6612 214.001 72.579 214.393 72.4968 214.785C72.6991 214.343 73.1288 213.521 73.1604 213.42C73.7924 212.358 75.7327 210.702 77.0915 211.05C77.3155 211.114 77.5236 211.224 77.7021 211.373C77.8806 211.523 78.0256 211.708 78.1276 211.918C78.2296 212.127 78.2863 212.355 78.294 212.588C78.3017 212.821 78.2602 213.053 78.1722 213.268C77.8372 214.197 76.7692 214.791 75.878 215.07C74.8921 215.367 72.718 215.07 72.4463 215.07C72.3136 215.702 72.1935 216.334 72.086 216.966C71.8712 218.185 71.7068 219.285 71.5804 220.239H70.664C70.8157 219.253 71.018 218.097 71.296 216.814C71.4288 216.15 71.5804 215.449 71.7448 214.728C71.0956 214.464 70.4625 214.163 69.8488 213.824C69.0061 214.552 68.0659 215.158 67.0553 215.626C67.3081 216.258 67.5546 216.839 67.8011 217.395C68.2624 218.457 68.7048 219.411 69.103 220.239H68.0665C67.7252 219.485 67.365 218.642 66.9858 217.711C66.7267 217.079 66.4676 216.416 66.2021 215.727C65.943 215.784 63.7879 216.22 62.7767 215.992C61.8666 215.79 60.7669 215.272 60.3561 214.368C60.2495 214.156 60.1896 213.924 60.1804 213.687C60.1713 213.451 60.213 213.215 60.3029 212.995C60.3928 212.776 60.5286 212.579 60.7014 212.416C60.8741 212.254 61.0796 212.131 61.3041 212.055C62.6313 211.606 64.66 213.117 65.3995 214.122C65.4437 214.185 65.8482 214.88 66.0947 215.322C65.9936 215.038 65.8861 214.766 65.7787 214.475C65.5701 213.894 65.3742 213.313 65.1467 212.687C65.0582 212.377 64.9634 212.055 64.8686 211.758C64.7738 211.461 64.7043 211.126 64.6221 210.791C64.4388 210.032 64.2935 209.255 64.1671 208.465C63.6615 208.648 61.854 209.28 60.9123 209.211C59.9706 209.141 58.814 208.806 58.2705 207.978C58.138 207.787 58.0471 207.57 58.0036 207.341C57.9601 207.112 57.965 206.877 58.018 206.65C58.071 206.423 58.1709 206.21 58.3112 206.024C58.4516 205.838 58.6293 205.684 58.833 205.571C60.097 204.939 62.309 206.114 63.1938 206.999C63.2507 207.049 63.8258 207.757 64.1165 208.149C64.047 207.675 63.9648 207.201 63.908 206.721C63.7373 205.337 63.6046 203.921 63.4656 202.512C63.4276 202.082 63.3771 201.652 63.3328 201.248C63.1559 201.317 61.0197 202.114 59.9706 202.038C59.0416 201.974 57.8724 201.627 57.3288 200.774C57.1952 200.583 57.1032 200.367 57.0588 200.139C57.0143 199.91 57.0185 199.675 57.071 199.449C57.1234 199.222 57.223 199.009 57.3633 198.824C57.5035 198.638 57.6813 198.484 57.885 198.372C59.149 197.74 61.3673 198.916 62.2521 199.794C62.3216 199.864 63.1306 200.875 63.3265 201.147C63.2254 200.199 63.118 199.251 62.9726 198.334C62.7783 197.091 62.5017 195.862 62.1447 194.656C62.0625 194.688 59.8379 195.528 58.7635 195.452C57.8344 195.389 56.6652 195.041 56.1217 194.188C55.9881 193.998 55.8961 193.782 55.8516 193.553C55.8072 193.325 55.8114 193.09 55.8638 192.863C55.9163 192.637 56.0159 192.424 56.1562 192.238C56.2964 192.053 56.4742 191.899 56.6779 191.787C57.9419 191.155 60.1602 192.324 61.045 193.209C61.1145 193.278 61.9867 194.372 62.132 194.58C62.132 194.511 62.132 194.435 62.0752 194.365C61.6899 193.157 61.1993 191.986 60.6089 190.864C60.2929 190.232 59.9769 189.663 59.6104 189.107C59.2122 189.303 57.3857 190.194 56.4061 190.232C55.4265 190.27 54.2763 190.055 53.6443 189.29C53.491 189.116 53.3763 188.911 53.3074 188.689C53.2385 188.467 53.2171 188.233 53.2445 188.003C53.2719 187.772 53.3476 187.55 53.4665 187.35C53.5855 187.15 53.7451 186.978 53.935 186.844C55.1042 186.067 57.4552 186.996 58.4348 187.78C58.4854 187.824 58.9784 188.311 59.3323 188.677C59.1743 188.424 59.0163 188.165 58.8583 187.931C58.2705 187.053 57.6828 186.276 57.1519 185.599C56.8485 185.214 56.5641 184.873 56.2987 184.557C55.8057 184.557 53.8212 184.487 52.9554 184.083C52.0896 183.678 51.1416 182.945 50.9393 181.972C50.883 181.746 50.875 181.511 50.9156 181.282C50.9563 181.052 51.0449 180.835 51.1755 180.642C51.3061 180.449 51.4758 180.286 51.6736 180.164C51.8714 180.041 52.0928 179.962 52.3234 179.93C53.7201 179.785 55.376 181.694 55.8816 182.838C55.9258 182.932 56.4377 184.557 56.4124 184.557H56.3808C56.6463 184.86 56.9244 185.189 57.2214 185.542C57.7649 186.212 58.378 186.971 58.9847 187.843C59.6477 188.779 60.2575 189.752 60.8112 190.756C61.4343 191.879 61.9567 193.055 62.3722 194.27C62.3722 194.27 62.3722 194.302 62.3722 194.315C62.3722 193.904 62.3722 192.754 62.3722 192.665C62.5302 191.401 63.573 189.126 64.9508 188.873C65.1797 188.839 65.4131 188.854 65.6361 188.916C65.859 188.978 66.0665 189.086 66.2452 189.233C66.4238 189.38 66.5697 189.563 66.6733 189.77C66.7769 189.977 66.836 190.203 66.8468 190.434C66.9289 191.42 66.2148 192.406 65.5196 193.032C64.7296 193.733 62.5492 194.409 62.3596 194.466C62.7496 195.708 63.0557 196.975 63.276 198.258C63.415 199.01 63.5224 199.769 63.6236 200.534C63.6236 200.18 63.6236 199.857 63.6236 199.813C63.7879 198.549 64.8244 196.268 66.2021 196.021C66.4309 195.988 66.664 196.004 66.8865 196.066C67.1091 196.128 67.3162 196.236 67.4946 196.383C67.673 196.53 67.8188 196.713 67.9228 196.919C68.0267 197.125 68.0864 197.351 68.0981 197.582C68.1803 198.568 67.4661 199.554 66.7646 200.18C66.0631 200.805 64.2366 201.444 63.7184 201.583L63.8321 202.461C63.9964 203.864 64.1608 205.274 64.363 206.645C64.4325 207.125 64.521 207.599 64.6032 208.073C64.6032 207.757 64.6032 207.492 64.6032 207.441C64.7612 206.177 65.804 203.896 67.1817 203.649C67.4106 203.615 67.6441 203.63 67.8671 203.692C68.09 203.754 68.2975 203.862 68.4761 204.009C68.6548 204.156 68.8006 204.339 68.9042 204.546C69.0079 204.753 69.067 204.979 69.0777 205.21C69.1599 206.196 68.4457 207.182 67.7505 207.802C66.8422 208.412 65.8443 208.877 64.7928 209.179C64.8939 209.666 64.995 210.146 65.1151 210.614C65.2036 210.924 65.2668 211.246 65.3742 211.543C65.4816 211.84 65.5764 212.175 65.6712 212.466C65.8861 213.047 66.0947 213.641 66.3032 214.204C66.4549 214.596 66.6066 214.962 66.752 215.335C66.6761 214.855 66.5497 213.913 66.5497 213.831C66.5592 212.721 66.8552 211.632 67.4092 210.671C67.3998 210.549 67.3998 210.426 67.4092 210.304C67.4374 210.073 67.5143 209.85 67.6348 209.651C67.7553 209.451 67.9167 209.28 68.1084 209.147C68.3001 209.014 68.5177 208.924 68.7468 208.882C68.976 208.839 69.2116 208.846 69.438 208.901C70.7904 209.261 71.65 211.638 71.7132 212.883C71.7132 212.959 71.6689 213.761 71.631 214.273C71.7005 213.976 71.7637 213.692 71.8332 213.388C71.9786 212.788 72.1366 212.194 72.3072 211.556C72.3957 211.252 72.4905 210.924 72.5853 210.627C72.6801 210.33 72.8065 209.995 72.914 209.685C73.1794 208.952 73.4891 208.219 73.8114 207.492C73.2868 207.365 71.4351 206.898 70.6893 206.323C69.9436 205.748 69.1599 204.825 69.1662 203.833C69.16 203.6 69.2031 203.368 69.2925 203.153C69.3819 202.938 69.5156 202.744 69.685 202.584C69.8544 202.425 70.0556 202.302 70.2755 202.226C70.4954 202.149 70.729 202.119 70.9611 202.139C72.3515 202.29 73.5649 204.509 73.8177 205.735C73.8177 205.811 73.9125 206.708 73.9504 207.201C74.1464 206.765 74.3423 206.329 74.5824 205.899C75.2144 204.635 75.8464 203.371 76.5353 202.145L77.1673 200.995C76.9777 200.951 74.7594 200.439 73.9252 199.794C73.0909 199.149 72.402 198.296 72.4084 197.31C72.4014 197.078 72.4436 196.846 72.5322 196.631C72.6208 196.415 72.7539 196.221 72.9227 196.061C73.0914 195.9 73.2922 195.777 73.5118 195.699C73.7313 195.622 73.9648 195.591 74.1969 195.61C75.5936 195.762 76.8008 197.98 77.0536 199.206C77.0536 199.301 77.1863 200.59 77.1989 200.925C77.6413 200.078 78.0711 199.232 78.4629 198.397C78.9964 197.251 79.4545 196.071 79.8344 194.864C79.7459 194.864 77.4328 194.315 76.5732 193.664C75.8338 193.095 75.0501 192.16 75.0564 191.174C75.0495 190.941 75.0917 190.709 75.1803 190.494C75.2689 190.278 75.4019 190.084 75.5707 189.924C75.7395 189.763 75.9403 189.64 76.1598 189.563C76.3794 189.485 76.6129 189.455 76.845 189.474C78.2417 189.625 79.4488 191.844 79.7016 193.07C79.7016 193.164 79.847 194.561 79.8533 194.814C79.8533 194.744 79.9039 194.675 79.9228 194.605C80.2679 193.386 80.5048 192.138 80.6307 190.877C80.7128 190.175 80.7444 189.511 80.7634 188.854C80.3273 188.804 78.3112 188.532 77.477 188.026C76.6428 187.521 75.7896 186.705 75.6884 185.719C75.6564 185.488 75.6735 185.252 75.7385 185.027C75.8035 184.803 75.915 184.594 76.0657 184.415C76.2165 184.237 76.4032 184.092 76.6136 183.99C76.8241 183.888 77.0536 183.831 77.2874 183.823C78.6841 183.823 80.1314 185.896 80.5169 187.085C80.5169 187.154 80.6812 187.83 80.776 188.349C80.776 188.058 80.776 187.717 80.776 187.47C80.776 186.408 80.7065 185.441 80.637 184.582C80.5991 184.095 80.5485 183.653 80.5043 183.242C80.0935 182.964 78.4756 181.82 77.9763 180.998C77.477 180.177 77.0915 179.052 77.458 178.129C77.536 177.91 77.6593 177.71 77.8199 177.541C77.9805 177.373 78.1747 177.24 78.39 177.152C78.6052 177.064 78.8367 177.022 79.0692 177.029C79.3017 177.036 79.5301 177.092 79.7396 177.194C81.0036 177.826 81.3132 180.354 81.1047 181.574C81.1047 181.681 80.618 183.318 80.5928 183.305C80.6433 183.703 80.7002 184.127 80.7508 184.569C80.8329 185.429 80.9214 186.402 80.9467 187.464C80.9839 188.61 80.9565 189.758 80.8645 190.902C80.7679 192.182 80.5564 193.451 80.2325 194.694C80.2353 194.708 80.2353 194.723 80.2325 194.738C80.4537 194.39 81.1047 193.474 81.1616 193.379C81.9768 192.431 84.1193 191.085 85.4086 191.629C85.6199 191.726 85.8084 191.867 85.9618 192.042C86.1153 192.217 86.2303 192.422 86.2994 192.644C86.3685 192.867 86.3902 193.101 86.363 193.332C86.3358 193.563 86.2605 193.786 86.1417 193.986C85.7625 194.864 84.6186 195.288 83.6959 195.427Z" fill="#263238"/>
<path d="M59.6672 188.848C59.6672 188.848 59.2185 187.211 59.2059 187.103C59.0289 185.839 59.4271 183.368 60.6847 182.761C60.8974 182.666 61.1279 182.616 61.3612 182.615C61.5944 182.614 61.8253 182.662 62.0387 182.756C62.2521 182.85 62.4433 182.988 62.5998 183.161C62.7564 183.334 62.8748 183.538 62.9473 183.76C63.2823 184.689 62.8525 185.827 62.3469 186.61C61.7465 187.533 59.6672 188.848 59.6672 188.848Z" fill="#263238"/>
<path d="M180.853 69.6904H137.959L131.108 100.842H187.704L180.853 69.6904Z" fill="#F0F0F0" stroke="#263238" stroke-linecap="round" stroke-linejoin="round"/>
<path d="M194.536 100.273H124.276L113.058 146.757H205.754L194.536 100.273Z" fill="#E3E3E3" stroke="#263238" stroke-linecap="round" stroke-linejoin="round"/>
<path d="M180.809 100.355H138.01V105.999H180.809V100.355Z" fill="white" stroke="#263238" stroke-linecap="round" stroke-linejoin="round"/>
<path d="M181.959 105.474H136.853V111.238H181.959V105.474Z" fill="white" stroke="#263238" stroke-linecap="round" stroke-linejoin="round"/>
<path d="M183.116 110.891H135.703V116.768H183.116V110.891Z" fill="white" stroke="#263238" stroke-linecap="round" stroke-linejoin="round"/>
<path d="M184.266 116.458H134.546V122.456H184.266V116.458Z" fill="white" stroke="#263238" stroke-linecap="round" stroke-linejoin="round"/>
<path d="M185.422 122.172H133.396V128.283H185.422V122.172Z" fill="white" stroke="#263238" stroke-linecap="round" stroke-linejoin="round"/>
<path d="M186.573 128.03H132.24V134.262H186.573V128.03Z" fill="white" stroke="#263238" stroke-linecap="round" stroke-linejoin="round"/>
<path d="M187.723 134.186H131.083V140.538H187.723V134.186Z" fill="white" stroke="#263238" stroke-linecap="round" stroke-linejoin="round"/>
<path d="M188.879 140.196H129.933V146.662H188.879V140.196Z" fill="white" stroke="#263238" stroke-linecap="round" stroke-linejoin="round"/>
<path d="M169.408 69.7661H149.405V73.4949H169.408V69.7661Z" fill="white" stroke="#263238" stroke-linecap="round" stroke-linejoin="round"/>
<path d="M169.951 73.1538H148.867V76.9584H169.951V73.1538Z" fill="white" stroke="#263238" stroke-linecap="round" stroke-linejoin="round"/>
<path d="M170.482 76.731H148.324V80.6114H170.482V76.731Z" fill="white" stroke="#263238" stroke-linecap="round" stroke-linejoin="round"/>
<path d="M171.025 80.4028H147.787V84.3655H171.025V80.4028Z" fill="white" stroke="#263238" stroke-linecap="round" stroke-linejoin="round"/>
<path d="M171.569 84.1758H147.25V88.2143H171.569V84.1758Z" fill="white" stroke="#263238" stroke-linecap="round" stroke-linejoin="round"/>
<path d="M172.1 88.0498H146.706V92.1641H172.1V88.0498Z" fill="white" stroke="#263238" stroke-linecap="round" stroke-linejoin="round"/>
<path d="M172.643 92.1138H146.169V96.3102H172.643V92.1138Z" fill="white" stroke="#263238" stroke-linecap="round" stroke-linejoin="round"/>
<path d="M173.18 96.0825H145.632V100.355H173.18V96.0825Z" fill="white" stroke="#263238" stroke-linecap="round" stroke-linejoin="round"/>
<path d="M218.634 146.434H100.178L81.2688 216.22H237.543L218.634 146.434Z" fill="#C7C7C7" stroke="#263238" stroke-linecap="round" stroke-linejoin="round"/>
<path d="M262.773 214.033H56.0393L36.0745 292.742H282.738L262.773 214.033Z" fill="#C7C7C7" stroke="#263238" stroke-linecap="round" stroke-linejoin="round"/>
<path d="M237.208 221.926H81.6038L82.1346 214.153H236.678L237.208 221.926Z" fill="white" stroke="#263238" stroke-linecap="round" stroke-linejoin="round"/>
<path d="M239.187 230.042H79.6255L80.1817 222.009H238.63L239.187 230.042Z" fill="white" stroke="#263238" stroke-linecap="round" stroke-linejoin="round"/>
<path d="M241.196 238.27H77.6157L78.2035 229.979H240.609L241.196 238.27Z" fill="white" stroke="#263238" stroke-linecap="round" stroke-linejoin="round"/>
<path d="M243.231 246.619H75.5808L76.1939 238.062H242.618L243.231 246.619Z" fill="white" stroke="#263238" stroke-linecap="round" stroke-linejoin="round"/>
<path d="M245.298 255.088H73.5142L74.1588 246.259H244.653L245.298 255.088Z" fill="white" stroke="#263238" stroke-linecap="round" stroke-linejoin="round"/>
<path d="M247.44 264.283H71.3716L72.0478 255.164H246.764L247.44 264.283Z" fill="white" stroke="#263238" stroke-linecap="round" stroke-linejoin="round"/>
<path d="M249.615 273.618H69.1975L69.9054 264.208H248.907L249.615 273.618Z" fill="white" stroke="#263238" stroke-linecap="round" stroke-linejoin="round"/>
<path d="M251.827 283.104H66.9856L67.7314 273.384H251.081L251.827 283.104Z" fill="white" stroke="#263238" stroke-linecap="round" stroke-linejoin="round"/>
<path d="M254.07 292.742H64.7419L65.5256 282.712H253.286L254.07 292.742Z" fill="white" stroke="#263238" stroke-linecap="round" stroke-linejoin="round"/>
<path d="M200.464 146.409H118.348V154.669H200.464V146.409Z" fill="white" stroke="#263238" stroke-linecap="round" stroke-linejoin="round"/>
<path d="M202.676 153.898H116.136V162.329H202.676V153.898Z" fill="white" stroke="#263238" stroke-linecap="round" stroke-linejoin="round"/>
<path d="M204.894 161.823H113.924V170.425H204.894V161.823Z" fill="white" stroke="#263238" stroke-linecap="round" stroke-linejoin="round"/>
<path d="M207.1 169.97H111.706V178.742H207.1V169.97Z" fill="white" stroke="#263238" stroke-linecap="round" stroke-linejoin="round"/>
<path d="M209.318 178.325H109.494V187.268H209.318V178.325Z" fill="white" stroke="#263238" stroke-linecap="round" stroke-linejoin="round"/>
<path d="M211.53 186.901H107.282V196.021H211.53V186.901Z" fill="white" stroke="#263238" stroke-linecap="round" stroke-linejoin="round"/>
<path d="M213.749 195.907H105.07V205.198H213.749V195.907Z" fill="white" stroke="#263238" stroke-linecap="round" stroke-linejoin="round"/>
<path d="M215.954 204.705H102.852V214.166H215.954V204.705Z" fill="white" stroke="#263238" stroke-linecap="round" stroke-linejoin="round"/>
<path d="M98.4467 100.684L92.7903 105.652" stroke="#263238" stroke-linecap="round" stroke-linejoin="round"/>
<path d="M148.785 56.4248L101.929 97.6186" stroke="#263238" stroke-linecap="round" stroke-linejoin="round"/>
<path d="M143.862 55.1987L111.864 66.8844" stroke="#263238" stroke-linecap="round" stroke-linejoin="round"/>
<path d="M114.556 50.4082L94.0227 52.1209" stroke="#263238" stroke-linecap="round" stroke-linejoin="round"/>
<path d="M138.32 48.4302L116.851 50.2187" stroke="#263238" stroke-linecap="round" stroke-linejoin="round"/>
<path d="M83.3419 21.1909L78.0205 19.5098" stroke="#263238" stroke-linecap="round" stroke-linejoin="round"/>
<path d="M129.219 35.6765L84.8777 21.6714" stroke="#263238" stroke-linecap="round" stroke-linejoin="round"/>
<path d="M136.474 37.9706L132.196 36.6182" stroke="#263238" stroke-linecap="round" stroke-linejoin="round"/>
<path d="M222.502 100.684L228.158 105.652" stroke="#263238" stroke-linecap="round" stroke-linejoin="round"/>
<path d="M172.163 56.4248L219.02 97.6186" stroke="#263238" stroke-linecap="round" stroke-linejoin="round"/>
<path d="M177.086 55.1987L209.085 66.8844" stroke="#263238" stroke-linecap="round" stroke-linejoin="round"/>
<path d="M206.392 50.4082L226.926 52.1209" stroke="#263238" stroke-linecap="round" stroke-linejoin="round"/>
<path d="M182.623 48.4302L204.098 50.2187" stroke="#263238" stroke-linecap="round" stroke-linejoin="round"/>
<path d="M237.607 21.1909L242.928 19.5098" stroke="#263238" stroke-linecap="round" stroke-linejoin="round"/>
<path d="M191.73 35.6765L236.071 21.6714" stroke="#263238" stroke-linecap="round" stroke-linejoin="round"/>
<path d="M184.468 37.9706L188.753 36.6182" stroke="#263238" stroke-linecap="round" stroke-linejoin="round"/>
<path d="M152.843 135.197C152.843 135.197 150.315 134.452 150.46 136.689C150.606 138.926 153.285 140.411 153.285 140.411L152.843 135.197Z" fill="white" stroke="#263238" stroke-linecap="round" stroke-linejoin="round"/>
<path d="M168.327 135.197C168.327 135.197 170.413 134.155 170.413 136.095C170.413 138.035 168.182 139.963 168.182 139.963L168.327 135.197Z" fill="white" stroke="#263238" stroke-linecap="round" stroke-linejoin="round"/>
<path d="M152.546 129.092C152.546 129.092 152.691 139.666 153.285 141.606C153.879 143.546 155.668 146.074 157.311 146.074C158.954 146.074 164.459 145.625 165.527 145.031C166.332 144.451 166.993 143.693 167.457 142.816C167.922 141.939 168.178 140.967 168.207 139.975C168.207 137.593 168.504 131.639 168.504 131.639C169.159 131.131 169.673 130.463 169.995 129.699C170.589 128.359 168.504 126.425 168.055 126.274C167.606 126.122 165.969 125.68 165.969 125.68C165.969 125.68 167.012 124.788 166.715 124.043C166.418 123.297 163.587 122.848 162.399 122.848C161.45 122.946 160.535 123.253 159.719 123.746C159.719 123.746 154.954 123.594 153.462 125.382C153.027 125.884 152.717 126.482 152.558 127.127C152.399 127.772 152.394 128.446 152.546 129.092Z" fill="#263238" stroke="#263238" stroke-linecap="round" stroke-linejoin="round"/>
<path d="M169.224 148.154L150.157 148.457C150.157 148.457 151.054 145.626 152.097 145.297C153.14 144.968 163.859 144.697 166.096 145C168.333 145.303 169.224 148.154 169.224 148.154Z" fill="#2686FF" stroke="#263238" stroke-linecap="round" stroke-linejoin="round"/>
<path d="M162.582 273.94C162.582 273.94 161.773 282.599 162.462 282.87C163.151 283.142 165.211 284.134 170.16 282.87C171.474 282.542 169.06 273.662 169.06 273.662C169.06 273.662 165.862 275.596 162.582 273.94Z" fill="#263238" stroke="#263238" stroke-linecap="round" stroke-linejoin="round"/>
<path d="M139.672 206.898L142.2 244.584C142.2 244.584 140.683 251.536 142.074 257.692C143.464 263.848 145.727 285.544 145.727 285.544C145.727 285.544 146.858 283.402 150.644 283.016C154.429 282.631 155.175 284.147 155.175 284.147C155.175 284.147 154.929 267.766 154.929 265.876C154.929 263.987 156.439 252.017 156.313 248.357C156.17 245.732 155.832 243.121 155.301 240.546L156.186 217.737L158.202 217.484C158.202 217.484 156.818 236.261 157.697 240.546C158.575 244.831 160.724 258.191 160.857 259.322C160.989 260.454 162.62 273.941 162.62 273.941C162.62 273.941 165.894 274.825 167.411 274.699C168.374 274.583 169.267 274.136 169.939 273.435C169.939 273.435 172.707 253.142 172.467 249.994C172.226 246.847 169.307 239.282 169.307 238.65C169.307 238.018 168.548 233.733 168.548 233.733C168.548 233.733 173.844 218.988 174.723 213.698C175.601 208.409 175.696 206.032 175.696 206.032C175.696 206.032 160.699 208.428 153.26 208.428C148.689 208.405 144.134 207.892 139.672 206.898Z" fill="#2686FF" stroke="#263238" stroke-linecap="round" stroke-linejoin="round"/>
<path d="M146.428 244.382C148.415 242.723 150.528 241.223 152.748 239.895" stroke="#263238" stroke-linecap="round" stroke-linejoin="round"/>
<path d="M143.395 247.055C143.395 247.055 144.027 246.423 145.139 245.481" stroke="#263238" stroke-linecap="round" stroke-linejoin="round"/>
<path d="M146.144 241.917L154.037 236.596" stroke="#263238" stroke-linecap="round" stroke-linejoin="round"/>
<path d="M175.696 206.032C175.696 206.032 160.699 208.428 153.26 208.428C148.689 208.405 144.134 207.892 139.672 206.898L139.824 209.142C142.004 210.785 145.885 213.793 149.07 216.726C152.824 220.164 155.2 221.611 156.022 222.053L156.186 217.75L158.202 217.497C158.202 217.497 156.818 236.273 157.697 240.558C158.108 242.53 158.777 246.43 159.397 250.177C160.326 247.251 162.102 243.75 165.363 243.415C167.431 243.229 169.502 243.745 171.241 244.881C170.343 241.949 169.294 239.048 169.294 238.669C169.294 238.037 168.536 233.752 168.536 233.752C168.536 233.752 173.832 219.007 174.71 213.717C175.589 208.428 175.696 206.032 175.696 206.032Z" fill="#263238" stroke="#263238" stroke-linecap="round" stroke-linejoin="round"/>
<path d="M135.248 199.503C135.248 199.503 136.177 201.26 136.796 201.469C137.416 201.677 137.934 203.536 137.934 205.394C137.934 207.252 137.302 207.46 137.302 207.46C137.57 207.808 137.756 208.213 137.844 208.643C137.933 209.073 137.923 209.518 137.814 209.944C137.403 211.284 134.717 212.213 133.58 212.63C132.442 213.047 130.685 211.183 129.965 210.254C129.244 209.325 129.756 201.88 129.756 201.88C129.756 201.88 134.837 200.54 135.248 199.503Z" fill="white" stroke="#263238" stroke-linecap="round" stroke-linejoin="round"/>
<path d="M137.321 207.46C137.321 207.46 135.254 208.288 134.945 208.497C134.635 208.705 133.497 207.359 133.908 206.948C134.535 206.428 135.191 205.945 135.874 205.501" stroke="#263238" stroke-linecap="round" stroke-linejoin="round"/>
<path d="M133.08 203.744C133.08 203.744 135.254 204.256 134.528 206.222" stroke="#263238" stroke-linecap="round" stroke-linejoin="round"/>
<path d="M134.319 208.187C134.319 208.187 132.151 209.015 132.151 209.837C132.151 210.658 133.188 211.733 133.807 211.593C134.426 211.454 133.7 210.664 133.7 210.664" stroke="#263238" stroke-linecap="round" stroke-linejoin="round"/>
<path d="M185.991 203.744C185.133 204.738 184.371 205.81 183.716 206.948C183.204 208.08 182.168 209.116 182.376 209.837C182.585 210.557 182.686 211.101 182.686 211.101C182.686 211.101 181.757 213.268 182.686 213.888C183.287 214.331 184.006 214.584 184.752 214.615C185.163 214.615 186.819 215.954 187.957 215.746C189.094 215.537 190.744 215.025 190.851 211.511C190.959 207.998 191.363 203.965 191.363 203.965C191.363 203.965 187.647 203.744 185.991 203.744Z" stroke="#263238" stroke-linecap="round" stroke-linejoin="round"/>
<path d="M182.686 211.088C182.686 211.088 185.473 212.845 186.301 212.845C187.129 212.845 187.748 211.581 187.129 210.981C186.378 210.341 185.584 209.754 184.753 209.224" stroke="#263238" stroke-linecap="round" stroke-linejoin="round"/>
<path d="M188.159 207.049C188.159 207.049 186.509 208.907 187.129 210.974" stroke="#263238" stroke-linecap="round" stroke-linejoin="round"/>
<path d="M187.438 211.594C187.438 211.594 189.404 212.112 189.505 212.731C189.606 213.351 189.404 214.387 188.987 214.387C188.57 214.387 188.355 213.66 188.355 213.66" stroke="#263238" stroke-linecap="round" stroke-linejoin="round"/>
<path d="M192.905 202.967C192.374 204.109 191.487 205.049 190.377 205.647C188.583 206.538 185.46 204.155 185.46 204.155L182.18 184.942L175.032 174.198L174.432 189.859C174.432 189.859 177.263 207.132 176.821 207.435C176.379 207.739 169.818 210.709 158.796 211.903C147.774 213.098 138.098 207.884 138.098 207.884L142.712 190.005L140.626 176.733L135.488 184.784L136.158 198.625C136.158 198.625 134.97 201.754 132.884 202.202C131.555 202.462 130.188 202.462 128.859 202.202C128.86 202.185 128.86 202.168 128.859 202.152C128.859 202.063 128.814 201.861 128.764 201.564C128.764 201.431 128.719 201.273 128.688 201.096C128.65 200.824 128.593 200.502 128.536 200.148C128.479 199.794 128.448 199.586 128.397 199.276C128.347 198.966 128.296 198.644 128.239 198.303C127.437 193.297 126.141 185.201 126.04 184.481V184.449C126.04 183.053 135.722 158.114 136.31 157.526C136.898 156.938 136.942 154.998 138.996 153.652C141.05 152.306 152.268 147.699 152.268 147.699C156.578 146.352 168.498 148.141 168.498 148.141C168.498 148.141 173.117 150.821 173.712 151.124C174.306 151.427 180.708 155.289 182.199 156.18C183.691 157.071 183.836 158.708 184.43 160.648C185.024 162.588 189.347 176.884 190.687 179.412C192.027 181.94 192.905 202.967 192.905 202.967Z" fill="#2686FF" stroke="#263238" stroke-linecap="round" stroke-linejoin="round"/>
<path d="M135.488 184.803L136.158 198.644C136.158 198.644 134.97 201.772 132.884 202.221C131.555 202.481 130.188 202.481 128.859 202.221C128.86 202.204 128.86 202.187 128.859 202.171C128.859 202.082 128.814 201.88 128.764 201.583C128.764 201.45 128.719 201.286 128.688 201.115C128.65 200.843 128.593 200.521 128.536 200.167C128.479 199.813 128.448 199.605 128.397 199.295C128.347 198.985 128.296 198.663 128.239 198.322C127.437 193.316 126.141 185.22 126.04 184.5V184.468C126.899 184.955 128.498 185.732 129.522 185.562C130.299 185.416 131.241 184.38 131.93 183.47C132.069 183.053 132.183 182.743 132.246 182.56C132.992 180.556 137.359 168.416 137.359 168.416L140.633 176.758L135.488 184.803Z" fill="#263238" stroke="#263238" stroke-linecap="round" stroke-linejoin="round"/>
<path d="M137.947 162.898L140.626 176.751" stroke="#263238" stroke-linecap="round" stroke-linejoin="round"/>
<path d="M177.169 164.611L175.032 174.217L179.501 164.687" stroke="#263238" stroke-linecap="round" stroke-linejoin="round"/>
<path d="M178.009 160.819L177.668 162.348" stroke="#263238" stroke-linecap="round" stroke-linejoin="round"/>
<path d="M157.754 166.026C157.754 166.026 166.393 181.826 168.03 182.857" stroke="#263238" stroke-linecap="round" stroke-linejoin="round"/>
<path d="M167.006 184.196L168.182 185.239" stroke="#263238" stroke-linecap="round" stroke-linejoin="round"/>
<path d="M160.288 178.243L165.786 183.122" stroke="#263238" stroke-linecap="round" stroke-linejoin="round"/>
<path d="M192.905 202.967C192.905 202.967 192.665 197.317 192.242 191.521C189.663 190.636 186.699 189.398 185.606 188.07C183.52 185.542 175.924 175.26 175.924 175.26V175.582L182.161 184.942L185.435 204.155C185.435 204.155 188.564 206.537 190.352 205.646C191.471 205.054 192.367 204.113 192.905 202.967Z" fill="#263238" stroke="#263238" stroke-linecap="round" stroke-linejoin="round"/>
<path d="M145.695 285.538L145.417 290.019C145.417 290.019 143.218 293.046 143.767 294.695C144.317 296.345 146.517 296.067 149.816 296.067C153.115 296.067 155.453 293.735 155.453 291.643C155.453 289.551 155.143 284.122 155.143 284.122C155.143 284.122 153.74 282.858 150.612 282.991C149.662 283.056 148.735 283.315 147.889 283.754C147.043 284.192 146.296 284.799 145.695 285.538Z" fill="#263238" stroke="#263238" stroke-linecap="round" stroke-linejoin="round"/>
<path d="M154.651 293.823C154.077 293.362 153.398 293.05 152.675 292.914C151.952 292.779 151.206 292.824 150.505 293.046C148.09 293.848 146.637 295.321 144.861 295.782C145.923 296.187 147.623 296.067 149.816 296.067C150.74 296.088 151.656 295.897 152.494 295.508C153.332 295.119 154.07 294.542 154.651 293.823Z" fill="white" stroke="#263238" stroke-linecap="round" stroke-linejoin="round"/>
<path d="M161.09 51.0972H157.703V65.5194H161.09V51.0972Z" fill="#2686FF" stroke="#263238" stroke-linecap="round" stroke-linejoin="round"/>
<path d="M164.402 68.6103H154.391L155.573 63.0171H163.22L164.402 68.6103Z" fill="#2686FF" stroke="#263238" stroke-linecap="round" stroke-linejoin="round"/>
<path d="M170.438 70.9677H148.362L150.713 65.8169H168.08L170.438 70.9677Z" fill="#2686FF" stroke="#263238" stroke-linecap="round" stroke-linejoin="round"/>
<path d="M148.21 35.8347C146.633 35.8071 145.084 36.2495 143.759 37.1054C142.435 37.9614 141.395 39.1923 140.772 40.6412C140.15 42.0902 139.972 43.6917 140.263 45.2418C140.554 46.7919 141.299 48.2204 142.404 49.3454C143.51 50.4703 144.925 51.2409 146.47 51.5588C148.014 51.8768 149.619 51.7278 151.078 51.1308C152.538 50.5339 153.787 49.5159 154.666 48.2066C155.546 46.8974 156.015 45.356 156.015 43.779C156.025 42.7448 155.83 41.719 155.443 40.7601C155.055 39.8012 154.483 38.9279 153.758 38.1902C153.033 37.4525 152.17 36.8648 151.219 36.4607C150.267 36.0565 149.244 35.8438 148.21 35.8347ZM148.21 49.7387C147.033 49.76 145.877 49.4306 144.888 48.7923C143.899 48.154 143.123 47.2358 142.657 46.1546C142.192 45.0734 142.059 43.8782 142.276 42.7213C142.492 41.5644 143.048 40.498 143.873 39.6582C144.697 38.8183 145.753 38.243 146.906 38.0054C148.059 37.7678 149.256 37.8788 150.346 38.3241C151.435 38.7695 152.368 39.5291 153.024 40.5061C153.68 41.4832 154.031 42.6335 154.031 43.8106C154.038 45.3634 153.429 46.8556 152.338 47.9607C151.247 49.0658 149.763 49.6938 148.21 49.7071V49.7387Z" fill="#2686FF" stroke="#263238" stroke-linecap="round" stroke-linejoin="round"/>
<path d="M171.759 35.8348C170.181 35.806 168.631 36.2472 167.306 37.1024C165.981 37.9576 164.94 39.188 164.316 40.6369C163.693 42.0857 163.514 43.6874 163.804 45.2379C164.094 46.7884 164.839 48.2174 165.944 49.3431C167.049 50.4687 168.464 51.2398 170.009 51.5583C171.554 51.8768 173.159 51.7282 174.619 51.1315C176.079 50.5347 177.328 49.5168 178.208 48.2074C179.087 46.898 179.557 45.3564 179.557 43.7791C179.576 41.6916 178.765 39.6822 177.302 38.1926C175.84 36.7029 173.846 35.8548 171.759 35.8348ZM171.759 49.7388C170.584 49.7576 169.43 49.4267 168.443 48.7883C167.456 48.1498 166.682 47.2325 166.218 46.1529C165.754 45.0733 165.621 43.8802 165.836 42.7249C166.051 41.5697 166.605 40.5046 167.427 39.6647C168.249 38.8249 169.302 38.2484 170.453 38.0083C171.603 37.7682 172.799 37.8754 173.888 38.3163C174.977 38.7573 175.911 39.512 176.571 40.4846C177.23 41.4572 177.585 42.6039 177.592 43.7791C177.599 44.5517 177.454 45.3182 177.165 46.0346C176.876 46.7511 176.448 47.4034 175.906 47.9541C175.364 48.5048 174.719 48.9432 174.007 49.244C173.295 49.5449 172.531 49.7023 171.759 49.7072V49.7388Z" fill="#2686FF" stroke="#263238" stroke-linecap="round" stroke-linejoin="round"/>
<path d="M159.397 55.0726C156.782 55.0726 154.274 54.0338 152.425 52.1849C150.576 50.3359 149.537 47.8282 149.537 45.2134V35.0571H169.256V45.2134C169.256 47.8282 168.217 50.3359 166.368 52.1849C164.519 54.0338 162.011 55.0726 159.397 55.0726Z" fill="#2686FF" stroke="#263238" stroke-linecap="round" stroke-linejoin="round"/>
<path d="M152.527 40.4733L156.698 47.8487L157.804 45.3776L160.509 45.82L154.853 38.7227L152.527 40.4733Z" fill="#263238" stroke="#263238" stroke-linecap="round" stroke-linejoin="round"/>
<path d="M152.306 39.6016L150.852 47.9503L153.273 46.7368L155.086 48.7972L155.207 39.7216L152.306 39.6016Z" fill="#263238" stroke="#263238" stroke-linecap="round" stroke-linejoin="round"/>
<path d="M158.474 37.4209C158.474 36.5834 158.226 35.7648 157.76 35.0684C157.295 34.3721 156.634 33.8293 155.86 33.5089C155.086 33.1884 154.235 33.1045 153.413 33.2679C152.592 33.4313 151.838 33.8346 151.245 34.4268C150.653 35.0189 150.25 35.7734 150.086 36.5948C149.923 37.4162 150.007 38.2676 150.327 39.0414C150.648 39.8151 151.191 40.4764 151.887 40.9417C152.583 41.407 153.402 41.6553 154.24 41.6553C154.796 41.6562 155.347 41.5472 155.861 41.3347C156.375 41.1222 156.842 40.8103 157.236 40.417C157.629 40.0236 157.941 39.5565 158.153 39.0423C158.366 38.5282 158.475 37.9772 158.474 37.4209Z" fill="white" stroke="#263238" stroke-linecap="round" stroke-linejoin="round"/>
<path d="M157.507 37.4208C157.507 36.7745 157.315 36.1428 156.956 35.6055C156.597 35.0681 156.087 34.6493 155.49 34.402C154.893 34.1547 154.236 34.09 153.602 34.2161C152.968 34.3422 152.386 34.6534 151.929 35.1103C151.472 35.5673 151.161 36.1495 151.035 36.7833C150.909 37.4171 150.974 38.0741 151.221 38.6712C151.468 39.2682 151.887 39.7785 152.424 40.1375C152.962 40.4966 153.593 40.6882 154.24 40.6882C154.669 40.689 155.094 40.6051 155.491 40.4412C155.888 40.2773 156.248 40.0366 156.552 39.733C156.855 39.4295 157.096 39.0689 157.26 38.6721C157.424 38.2753 157.508 37.8501 157.507 37.4208Z" fill="white" stroke="#263238" stroke-linecap="round" stroke-linejoin="round"/>
<path d="M153.285 35.778C153.368 35.7923 153.453 35.79 153.536 35.7709C153.618 35.7519 153.695 35.7166 153.764 35.6671C153.832 35.6176 153.89 35.555 153.933 35.4828C153.977 35.4107 154.006 35.3305 154.018 35.2471H154.467V39.5004H153.835V36.252H153.317L153.285 35.778Z" fill="#263238"/>
<path d="M189.246 139.495C188.741 136.626 187.982 129.497 192.343 126.002C197.848 121.578 201.754 129.554 206.55 123.341C211.347 117.128 212.763 103.629 226.964 103.806C241.165 103.983 242.233 111.978 242.233 114.638C242.233 117.299 246.493 119.252 247.384 119.252C248.275 119.252 253.243 116.945 255.019 122.096C256.794 127.247 255.587 130.224 258.412 130.312C261.237 130.4 264.732 126.571 268.575 128.498C272.417 130.426 272.417 134.502 274.016 135.924C275.615 137.346 278.276 134.862 281.828 136.278C283.977 137.138 284.628 138.522 284.805 139.476L189.246 139.495Z" fill="white" stroke="black" stroke-miterlimit="10"/>
<path d="M195.87 44.7706C195.705 43.8289 195.465 41.4842 196.887 40.3466C198.701 38.8866 199.984 41.5094 201.558 39.4681C203.131 37.4267 203.599 32.9964 208.263 33.0533C212.927 33.1102 213.281 35.733 213.281 36.6114C213.281 37.4899 214.684 38.1282 214.975 38.1282C215.266 38.1282 216.903 37.3698 217.503 39.0636C218.103 40.7574 217.693 41.7306 218.615 41.7686C219.538 41.8065 220.695 40.5046 221.959 41.1366C223.223 41.7686 223.223 43.1147 223.747 43.5824C224.272 44.0501 225.144 43.2285 226.313 43.6962C226.554 43.7702 226.771 43.906 226.943 44.0901C227.115 44.2741 227.235 44.5001 227.293 44.7453L195.87 44.7706Z" fill="white" stroke="black" stroke-miterlimit="10"/>
<path d="M188.336 84.7699C188.026 83.0129 187.584 78.6711 190.232 76.5539C193.588 73.8489 195.971 78.7216 198.897 74.9296C201.823 71.1376 202.689 62.9216 211.354 63.0164C220.018 63.1112 220.669 67.9966 220.669 69.6208C220.669 71.2451 223.267 72.4396 223.829 72.4396C224.392 72.4396 227.4 71.0302 228.481 74.1712C229.561 77.3123 228.835 79.1324 230.554 79.2272C232.273 79.322 234.409 76.9457 236.754 78.1212C239.098 79.2968 239.098 81.7868 240.072 82.6527C241.045 83.5185 242.669 82.0207 244.837 82.8676C245.286 83.0027 245.691 83.2547 246.011 83.5979C246.331 83.941 246.554 84.3629 246.657 84.8204L188.336 84.7699Z" fill="white" stroke="black" stroke-miterlimit="10"/>
<path d="M140.001 32.1497C140.222 30.8857 140.544 27.7257 138.636 26.2089C136.209 24.2497 134.49 27.77 132.379 25.0334C130.268 22.2968 129.642 16.356 123.385 16.4319C117.129 16.5077 116.661 20.028 116.661 21.2035C116.661 22.379 114.765 23.2385 114.392 23.2385C114.019 23.2385 111.813 22.221 111.03 24.5025C110.246 26.784 110.777 28.0796 109.538 28.1239C108.3 28.1681 106.751 26.4807 105.057 27.3276C103.364 28.1744 103.364 29.9756 102.662 30.6013C101.961 31.227 100.766 30.1273 99.224 30.753C98.8989 30.849 98.6055 31.0303 98.3743 31.2782C98.1431 31.5261 97.9826 31.8314 97.9094 32.1624L140.001 32.1497Z" fill="white" stroke="black" stroke-miterlimit="10"/>
<path d="M150.77 119.688C151.402 116.155 152.293 107.383 146.978 103.079C140.203 97.6124 135.393 107.446 129.491 99.7991C123.588 92.1519 121.837 75.5303 104.35 75.7831C86.8622 76.0359 85.5476 85.8382 85.5476 89.1183C85.5476 92.3984 80.302 94.8063 79.2276 94.8063C78.1532 94.8063 72.0165 91.9623 69.8298 98.3076C67.643 104.653 69.1219 108.312 65.6522 108.42C62.1826 108.527 57.8154 103.806 53.0881 106.176C48.3607 108.546 48.3607 113.577 46.3952 115.327C44.4297 117.078 41.1433 114.013 36.7762 115.763C34.1218 116.819 33.3254 118.519 33.1042 119.694L150.77 119.688Z" fill="white" stroke="black" stroke-miterlimit="10"/>
<path d="M106.732 83.8792C106.928 82.7605 107.213 79.9797 105.525 78.6209C103.376 76.8892 101.853 80.005 99.9824 77.5781C98.1117 75.1512 97.5619 69.893 92.0256 69.9941C86.4892 70.0952 86.0721 73.1541 86.0721 74.2222C86.0721 75.2903 84.41 76.0171 84.0624 76.0171C83.7148 76.0171 81.7808 75.1196 81.0856 77.1294C80.3904 79.1392 80.8644 80.2894 79.7648 80.34C78.6651 80.3905 77.3 78.88 75.8021 79.6321C74.3043 80.3842 74.3043 81.9705 73.6786 82.5267C73.0529 83.0828 72.0164 82.1096 70.6324 82.6657C70.3428 82.7524 70.082 82.9156 69.8773 83.138C69.6727 83.3604 69.5318 83.6339 69.4695 83.9297L106.732 83.8792Z" fill="white" stroke="black" stroke-miterlimit="10"/>
</svg>
