<svg xmlns="http://www.w3.org/2000/svg" fill="none" viewBox="18.43 9.58 333.32 228.89">
<path d="M351.678 137.938C351.678 137.938 356.625 49.9671 282.183 25.7523C207.74 1.53761 170.294 19.3043 146.644 42.0608C122.994 64.8173 115.099 79.6229 87.9913 82.584C60.8836 85.5451 35.7347 90.4952 22.9179 123.608C10.1011 156.721 26.3806 182.915 51.01 199.223C75.6395 215.532 104.246 198.231 126.917 208.613C149.587 218.994 163.888 236.289 210.219 238.269C256.549 240.248 258.028 226.9 281.688 206.143C305.348 185.385 347.256 207.13 351.678 137.938Z" fill="#26B0FF"/>
<path opacity="0.7" d="M351.678 137.938C351.678 137.938 356.625 49.9671 282.183 25.7523C207.74 1.53761 170.294 19.3043 146.644 42.0608C122.994 64.8173 115.099 79.6229 87.9913 82.584C60.8836 85.5451 35.7347 90.4952 22.9179 123.608C10.1011 156.721 26.3806 182.915 51.01 199.223C75.6395 215.532 104.246 198.231 126.917 208.613C149.587 218.994 163.888 236.289 210.219 238.269C256.549 240.248 258.028 226.9 281.688 206.143C305.348 185.385 347.256 207.13 351.678 137.938Z" fill="white"/>
<path d="M170.522 25.9656C170.413 25.6382 170.304 25.3109 170.185 24.9736C165.812 12.7819 145.452 11.9437 145.452 26.9229C145.452 29.8096 138.526 26.9229 135.954 30.6776C133.382 34.4323 136.241 36.7337 132.788 37.8894C129.336 39.0451 129.049 36.1584 124.73 36.4461C120.412 36.7337 120.991 40.7761 119.551 41.9269C118.112 43.0776 118.117 42.5072 114.951 42.7949C111.785 43.0825 111.206 45.3889 111.206 45.3889H186.89C186.89 45.3889 189.764 36.7337 184.585 33.5593C179.406 30.3849 179.43 34.72 175.404 32.9889C172.075 31.5605 171.452 28.8424 170.522 25.9656Z" stroke="#B2B2B2" stroke-linecap="round" stroke-linejoin="round"/>
<path d="M173.133 42.2393C173.133 42.2393 174.701 37.3785 170.853 33.8073C167.004 30.2361 163.012 32.235 161.875 33.8073C160.737 35.3797 160.732 38.3805 158.882 38.6681C157.032 38.9558 157.457 35.5235 153.465 36.3816C149.473 37.2397 151.042 41.2374 149.191 42.0955C147.341 42.9536 147.336 39.8089 144.769 40.8109C142.202 41.8128 142.355 43.648 142.355 43.648" stroke="#B2B2B2" stroke-linecap="round" stroke-linejoin="round"/>
<path d="M152.669 32.5326C151.62 31.782 150.389 31.3268 149.105 31.2143C147.821 31.1017 146.531 31.336 145.368 31.8928C141.242 33.8024 143.147 37.7803 141.242 38.7376C139.338 39.6949 138.388 38.5789 136.033 39.68C133.679 40.7811 133.807 42.3832 133.807 42.3832" stroke="#B2B2B2" stroke-linecap="round" stroke-linejoin="round"/>
<path d="M288.974 54.3219C288.91 54.1186 288.841 53.9202 288.772 53.7168C286.105 46.2768 273.714 45.7808 273.714 54.9072C273.714 56.663 269.504 54.9072 267.926 57.1938C266.348 59.4803 268.104 60.884 265.997 61.5883C263.89 62.2926 263.717 60.5318 261.09 60.7104C258.463 60.889 258.81 63.3442 257.934 64.0485C257.058 64.7528 257.058 64.4006 255.129 64.5742C253.2 64.7478 252.849 66.1565 252.849 66.1565H298.962C298.962 66.1565 300.713 60.884 297.557 58.9496C294.401 57.0152 294.401 59.6539 291.947 58.5974C289.919 57.7294 289.538 56.0728 288.974 54.3219Z" stroke="#B2B2B2" stroke-linecap="round" stroke-linejoin="round"/>
<path d="M290.567 64.2369C290.822 63.3346 290.828 62.3796 290.583 61.4744C290.338 60.5692 289.852 59.7478 289.177 59.0984C286.833 56.9209 284.404 58.1411 283.706 59.0984C283.009 60.0557 283.014 61.8859 281.886 62.0744C280.758 62.2629 281.015 60.1598 278.586 60.6806C276.158 61.2014 277.102 63.6566 275.979 64.1526C274.857 64.6486 274.852 62.7589 273.289 63.3689C271.725 63.979 271.805 65.1099 271.805 65.1099" stroke="#B2B2B2" stroke-linecap="round" stroke-linejoin="round"/>
<path d="M278.097 58.3197C277.457 57.8617 276.706 57.5842 275.923 57.5162C275.14 57.4481 274.353 57.592 273.645 57.9328C271.127 59.0934 272.289 61.5189 271.127 62.0992C269.964 62.6795 269.391 62.0049 267.936 62.6845C266.482 63.364 266.586 64.3312 266.586 64.3312" stroke="#B2B2B2" stroke-linecap="round" stroke-linejoin="round"/>
<path d="M128.96 57.6649C128.895 57.4665 128.831 57.2632 128.757 57.0648C126.095 49.6248 113.699 49.1288 113.699 58.2502C113.699 60.011 109.494 58.2502 107.916 60.5368C106.339 62.8233 108.09 64.227 105.987 64.9314C103.885 65.6357 103.707 63.8749 101.075 64.0534C98.4436 64.232 98.7948 66.6921 97.9193 67.3915C97.0437 68.0909 97.0437 67.7437 95.1145 67.9222C93.1853 68.1008 92.8341 69.5045 92.8341 69.5045H138.947C138.947 69.5045 140.703 64.227 137.547 62.2926C134.391 60.3582 134.391 62.9969 131.938 61.9454C129.909 61.0725 129.528 59.4158 128.96 57.6649Z" stroke="#B2B2B2" stroke-linecap="round" stroke-linejoin="round"/>
<path d="M130.557 67.58C130.813 66.6776 130.818 65.7226 130.573 64.8174C130.328 63.9122 129.842 63.0909 129.167 62.4414C126.823 60.264 124.389 61.4841 123.696 62.4414C123.004 63.3987 122.999 65.2289 121.871 65.4174C120.743 65.6059 121.005 63.5029 118.572 64.0237C116.138 64.5445 117.088 66.9997 115.965 67.4957C114.842 67.9917 114.837 66.1019 113.274 66.712C111.711 67.3221 111.79 68.4529 111.79 68.4529" stroke="#B2B2B2" stroke-linecap="round" stroke-linejoin="round"/>
<path d="M118.082 61.6627C117.442 61.2047 116.692 60.9272 115.909 60.8592C115.126 60.7911 114.339 60.935 113.63 61.2758C111.117 62.4414 112.275 64.8619 111.117 65.4422C109.959 66.0225 109.376 65.348 107.926 66.0275C106.477 66.707 106.571 67.6742 106.571 67.6742" stroke="#B2B2B2" stroke-linecap="round" stroke-linejoin="round"/>
<path d="M265.849 76.017C265.849 96.4968 251.81 104.393 234.492 104.393C217.174 104.393 203.13 96.4968 203.13 76.017C203.13 55.5371 217.159 9.57776 234.472 9.57776C251.785 9.57776 265.849 55.552 265.849 76.017Z" fill="#26B0FF"/>
<path opacity="0.5" d="M265.849 76.017C265.849 96.4968 251.81 104.393 234.492 104.393C217.174 104.393 203.13 96.4968 203.13 76.017C203.13 55.5371 217.159 9.57776 234.472 9.57776C251.785 9.57776 265.849 55.552 265.849 76.017Z" fill="white"/>
<path d="M221.858 80.8728L231.252 85.188L230.584 122.11H235.372L234.972 93.3373L247.294 86.6264L253.561 89.7413L249.193 85.9022L255.575 81.349L239.439 88.779L241.754 83.9877L237.059 89.2602L235.15 89.4982L234.833 84.7069L252.641 63.1309L243.93 71.2851L244.944 60.2541L249.757 47.7946L244.435 58.3395L244.232 46.1131L242.268 71.7613L238.523 76.7957L237.94 70.3229L235.921 78.2341L234.299 81.592L235.303 55.4627L240.868 45.1558L234.991 51.1475L233.834 38.9211L232.765 60.9782L220.795 45.3939L232.083 63.1309L231.989 71.7613L223.787 67.4461L224.391 60.4971L222.338 66.4888L214.136 61.9355L231.796 74.6381L231.445 82.3112L209.808 74.8811L220.171 80.1536L208.769 84.4688L221.858 80.8728Z" fill="#B2B2B2"/>
<path d="M117.632 76.017C117.632 96.4968 103.588 104.393 86.2699 104.393C68.9516 104.393 54.908 96.4968 54.908 76.017C54.908 55.5371 68.9516 9.57776 86.2699 9.57776C103.588 9.57776 117.632 55.552 117.632 76.017Z" fill="#26B0FF"/>
<path opacity="0.5" d="M117.632 76.017C117.632 96.4968 103.588 104.393 86.2699 104.393C68.9516 104.393 54.908 96.4968 54.908 76.017C54.908 55.5371 68.9516 9.57776 86.2699 9.57776C103.588 9.57776 117.632 55.552 117.632 76.017Z" fill="white"/>
<path d="M73.6411 80.8728L83.0348 85.188L82.367 122.11H87.1554L86.7547 93.3373L99.0768 86.6264L105.344 89.7413L100.976 85.9022L107.353 81.349L91.2215 88.779L93.5316 83.9877L88.8372 89.2602L86.9328 89.4982L86.6112 84.7069L104.424 63.1309L95.7131 71.2851L96.7271 60.2541L101.54 47.7946L96.2176 58.3395L96.0148 46.1131L94.0461 71.7613L90.3064 76.7957L89.7227 70.3229L87.6995 78.2341L86.0819 81.592L87.0861 55.4627L92.6511 45.1558L86.7745 51.1475L85.6169 38.9211L84.5435 60.9782L72.5726 45.3939L83.8658 63.1309L83.7669 71.7613L75.5703 67.4461L76.1688 60.4971L74.1209 66.4888L65.9144 61.9355L83.5789 74.6381L83.2277 82.3112L61.586 74.8811L71.9543 80.1536L60.5522 84.4688L73.6411 80.8728Z" fill="#B2B2B2"/>
<path d="M332.357 162.44H341.627" stroke="#263238" stroke-linecap="round" stroke-linejoin="round"/>
<path d="M152.773 162.44H328.137" stroke="#263238" stroke-linecap="round" stroke-linejoin="round"/>
<path d="M22.9575 162.44H148.558" stroke="#263238" stroke-linecap="round" stroke-linejoin="round"/>
<path d="M52.4445 201.212H341.627" stroke="#263238" stroke-linecap="round" stroke-linejoin="round"/>
<path d="M22.9575 201.212H48.6504" stroke="#263238" stroke-linecap="round" stroke-linejoin="round"/>
<path d="M63.8268 121.966H341.627" stroke="#263238" stroke-linecap="round" stroke-linejoin="round"/>
<path d="M22.9575 121.966H59.6073" stroke="#263238" stroke-linecap="round" stroke-linejoin="round"/>
<path d="M228.571 144.713H207.033C206.478 144.713 206.029 145.164 206.029 145.72V161.433C206.029 161.989 206.478 162.44 207.033 162.44H228.571C229.125 162.44 229.575 161.989 229.575 161.433V145.72C229.575 145.164 229.125 144.713 228.571 144.713Z" fill="white" stroke="#263238" stroke-linecap="round" stroke-linejoin="round"/>
<path d="M227.314 144.713H205.776C205.222 144.713 204.772 145.164 204.772 145.72V161.433C204.772 161.989 205.222 162.44 205.776 162.44H227.314C227.869 162.44 228.318 161.989 228.318 161.433V145.72C228.318 145.164 227.869 144.713 227.314 144.713Z" fill="white" stroke="#263238" stroke-linecap="round" stroke-linejoin="round"/>
<path d="M208.631 147.049C208.368 147.049 208.117 147.154 207.931 147.34C207.745 147.526 207.641 147.778 207.641 148.041V162.425H227.329C227.591 162.425 227.843 162.321 228.029 162.135C228.214 161.949 228.318 161.696 228.318 161.433V147.049H208.631Z" fill="white" stroke="#263238" stroke-linecap="round" stroke-linejoin="round"/>
<path d="M228.571 156.8H200.929C200.374 156.8 199.924 157.251 199.924 157.807V161.433C199.924 161.989 200.374 162.44 200.929 162.44H228.571C229.125 162.44 229.575 161.989 229.575 161.433V157.807C229.575 157.251 229.125 156.8 228.571 156.8Z" fill="white" stroke="#263238" stroke-linecap="round" stroke-linejoin="round"/>
<path d="M225.143 156.8H200.929C200.374 156.8 199.924 157.251 199.924 157.807V161.433C199.924 161.989 200.374 162.44 200.929 162.44H225.143C225.697 162.44 226.147 161.989 226.147 161.433V157.807C226.147 157.251 225.697 156.8 225.143 156.8Z" fill="white" stroke="#263238" stroke-linecap="round" stroke-linejoin="round"/>
<path d="M253.675 151.131C253.675 151.131 255.065 170.971 255.268 173.774C255.471 176.576 254.071 186.838 254.669 192.522C255.268 198.207 257.143 207.085 257.143 207.085C257.143 207.085 259.23 209.877 260.922 208.484C262.614 207.09 262.114 204.59 262.114 202.497C262.114 200.404 264.093 182.657 264.587 179.155C264.749 177.677 265.015 176.211 265.384 174.771L269.262 153.939C269.262 153.939 274.209 180.023 275.693 183.614C277.177 187.205 284.186 203.608 284.186 203.608L286.278 207.898L289.459 206.906C289.459 206.906 288.326 185.117 287.233 182.106C286.14 179.096 285.64 177.642 285.64 177.642L285.977 155.818L286.278 151.627L254.259 149.732L253.675 151.131Z" fill="white" stroke="#263238" stroke-linecap="round" stroke-linejoin="round"/>
<path d="M287.258 182.106C286.165 179.13 285.665 177.642 285.665 177.642L286.001 155.818L286.303 151.627L254.259 149.732L253.66 151.131C253.66 151.131 255.05 170.971 255.253 173.774C255.456 176.576 254.056 186.838 254.654 192.522C254.857 194.447 255.208 196.738 255.584 198.926C257.769 199.606 260.081 199.776 262.342 199.422C262.881 193.628 264.206 181.923 264.602 179.155C264.764 177.677 265.03 176.211 265.399 174.771L269.277 153.939C269.277 153.939 274.223 180.023 275.707 183.614C276.776 186.184 280.194 194.938 282.92 200.027C284.898 200.215 287.154 200.404 288.945 199.213C287.931 192.522 287.896 183.912 287.258 182.106Z" fill="#263238" stroke="#263238" stroke-linecap="round" stroke-linejoin="round"/>
<path d="M289.286 203.395C289.286 203.395 287.495 202.899 286.501 203.692C285.507 204.486 285.705 205.989 285.705 205.989L284.809 204.501C284.809 204.501 284.211 204.104 284.512 205.696C284.814 207.288 285.106 208.791 285.106 208.791C285.106 208.791 284.611 209.59 285.309 210.984C286.006 212.377 286.793 212.472 287.495 214.079C288.198 215.686 288.292 218.166 290.958 219.163C293.624 220.16 297.102 220.546 296.894 215.859C296.686 211.172 292.541 209.089 291.843 207.596C291.079 206.143 290.225 204.74 289.286 203.395Z" fill="white" stroke="#263238" stroke-linecap="round" stroke-linejoin="round"/>
<path d="M290.978 219.153C293.664 220.145 297.122 220.536 296.914 215.849C296.892 215.454 296.84 215.061 296.76 214.674C296.449 217.392 295.519 219.346 292.071 218.642C287.748 217.759 288.48 213.498 287.015 211.202C285.551 208.905 285.096 208.766 285.096 208.766C285.096 208.766 284.602 209.565 285.299 210.959C285.996 212.352 286.783 212.447 287.485 214.054C288.188 215.661 288.292 218.156 290.978 219.153Z" fill="white" stroke="#263238" stroke-linecap="round" stroke-linejoin="round"/>
<path d="M260.437 206.485C260.437 206.485 258.458 203.792 257.469 203.792C256.48 203.792 255.985 204.491 255.876 205.686C255.767 206.882 254.486 209.58 254.486 209.58C254.486 209.58 248.323 214.664 247.907 215.462C247.492 216.261 249.391 216.762 250.791 216.95C252.191 217.139 263.222 216.95 263.222 216.95C263.222 216.95 263.821 216.251 263.717 214.654C263.613 213.057 263.717 208.37 263.42 207.075C263.123 205.78 261.832 206.187 260.437 206.485Z" fill="white" stroke="#263238" stroke-linecap="round" stroke-linejoin="round"/>
<path d="M252.859 215.924C250.212 215.924 248.901 215.428 248.268 215.016C248.13 215.149 248.008 215.299 247.907 215.462C247.506 216.261 249.391 216.762 250.791 216.95C252.191 217.139 263.222 216.95 263.222 216.95C263.623 216.323 263.797 215.578 263.717 214.837L262.727 215.105C259.898 215.924 257.256 215.924 252.859 215.924Z" fill="white" stroke="#263238" stroke-linecap="round" stroke-linejoin="round"/>
<path d="M253.269 146.444L253.472 152.227C253.472 152.227 258.542 155.918 269.188 157.187C279.833 158.457 286.595 156.493 286.595 156.493C286.595 156.493 288.485 149.807 288.781 138.835C289.078 127.864 285.601 104.611 285.601 104.611L263.618 105.008L253.269 146.444Z" fill="white" stroke="#263238" stroke-linecap="round" stroke-linejoin="round"/>
<path d="M259.205 145.174L258.745 149.638C258.745 149.638 251.652 147.471 250.029 146.702C248.407 145.933 248.105 145.388 248.105 145.388L248.951 141.291C251.854 143.674 255.456 145.038 259.205 145.174Z" fill="white" stroke="#263238" stroke-linecap="round" stroke-linejoin="round"/>
<path d="M265.413 101.253C265.413 101.253 263.776 99.3934 257.331 101.477C251.455 103.461 245.692 105.764 240.067 108.376C235.694 110.36 235.036 112.652 237.099 115.171C239.161 117.691 240.596 118.018 243.653 117.8C246.71 117.582 249.663 115.389 252.616 114.73L256.549 113.857C256.549 113.857 247.699 136.316 247.259 139.054C246.819 141.792 249.238 142.997 252.616 144.42C254.706 145.286 256.944 145.732 259.205 145.735L267.728 106.734C267.728 106.734 268.693 104.656 265.413 101.253Z" fill="#26B0FF" stroke="#263238" stroke-linecap="round" stroke-linejoin="round"/>
<path d="M284.532 93.1835C284.532 93.1835 286.778 92.3998 288.49 93.2678C290.201 94.1358 290.864 97.7318 290.864 97.7318C290.864 97.7318 292.59 96.3629 294.391 97.4442C295.378 97.9684 296.209 98.7453 296.8 99.696C297.134 99.3191 297.573 99.0498 298.059 98.9218C298.546 98.7939 299.06 98.813 299.535 98.9768C300.135 99.1233 300.691 99.4081 301.161 99.8086C301.631 100.209 302.001 100.714 302.241 101.283C302.533 101.933 301.811 101.64 299.273 101.64C296.736 101.64 296.538 100.703 296.538 100.703C296.538 100.703 295.385 101.199 292.724 101.065C290.063 100.931 289.914 100.271 289.914 100.271C289.914 100.271 290.775 101.065 286.946 101.263C283.118 101.462 275.638 100.271 276.36 95.5544C277.083 90.8374 279.962 89.9248 281.614 90.2869C283.266 90.649 284.532 93.1835 284.532 93.1835Z" fill="#263238" stroke="#263238" stroke-linecap="round" stroke-linejoin="round"/>
<path d="M273.269 147.342L273.57 151.726C273.57 151.726 276.355 152.927 281.228 152.029C286.1 151.131 290.978 148.934 292.17 147.138C292.899 146.005 293.312 144.697 293.367 143.349C293.367 143.349 283.914 146.94 279.338 147.441C274.763 147.942 273.269 147.342 273.269 147.342Z" fill="white" stroke="#263238" stroke-linecap="round" stroke-linejoin="round"/>
<path d="M276.613 109.69C276.613 109.69 273.056 141.152 272.987 144.336C272.917 147.52 273.219 148.592 273.219 148.592C273.219 148.592 280.466 150.08 287.565 147.044C294.663 144.009 294.821 142.466 294.574 140.864C294.327 139.262 290.721 119.139 290.617 117.904C290.513 116.669 290.542 114.655 290.542 114.655L291.156 114.04C291.156 114.04 298.576 118.911 303.646 119C308.716 119.09 310.28 115.985 309.429 111.426C308.578 106.868 301.41 105.008 294.703 102.459C287.995 99.9093 285.685 99.2893 280.748 99.2893C275.811 99.2893 276.613 109.69 276.613 109.69Z" fill="#26B0FF" stroke="#263238" stroke-linecap="round" stroke-linejoin="round"/>
<path d="M265.819 97.7418C265.819 97.7418 263.083 98.1038 262.851 98.7338C262.619 99.3637 262.203 101.913 261.99 103.138C261.778 104.363 261.698 110.792 270.632 111.074C279.566 111.357 284.028 107.969 284.602 103.49C285.175 99.0115 285.096 99.8795 283.81 97.712C282.524 95.5445 279.561 95.6933 278.339 95.8371C277.117 95.981 275.168 98.58 271.206 98.8677C267.244 99.1554 265.819 97.7418 265.819 97.7418Z" fill="white" stroke="#263238" stroke-linecap="round" stroke-linejoin="round"/>
<path d="M268.629 101.715C268.629 101.715 270.429 104.071 271.666 103.912C271.666 103.912 273.526 105.107 276.984 101.283C280.441 97.459 277.775 97.3152 277.775 97.3152C277.775 97.3152 273.096 102.221 268.629 101.715Z" fill="#263238" stroke="#263238" stroke-linecap="round" stroke-linejoin="round"/>
<path d="M284.977 100.053C284.977 100.053 285.769 104.314 279.65 107.637C273.531 110.96 270.716 110.018 270.716 110.018" stroke="#263238" stroke-linecap="round" stroke-linejoin="round"/>
<path d="M275.257 103.302C274.174 104.17 271.438 104.894 268.198 104.676C264.958 104.458 263.301 101.139 263.301 101.139" stroke="#263238" stroke-linecap="round" stroke-linejoin="round"/>
<path d="M283.825 98.828C283.825 98.828 282.385 102.221 275.91 105.469" stroke="#263238" stroke-linecap="round" stroke-linejoin="round"/>
<path d="M241.892 117.825C241.892 117.825 240.22 116.833 241.991 114.234C243.762 111.635 246.24 112.175 246.67 113.658C247.101 115.141 246.715 116.967 245.236 117.492C243.757 118.018 242.456 118.162 241.892 117.825Z" fill="white" stroke="#263238" stroke-linecap="round" stroke-linejoin="round"/>
<path d="M253.517 110.836C253.517 110.836 256.208 110.568 256.485 110.514C256.762 110.459 257.558 110.787 256.861 111.54C256.163 112.294 256 112.404 253.685 112.726C251.37 113.048 252.552 113.862 250.667 114.998C248.783 116.133 248.461 116.128 248.461 116.128C248.461 116.128 249.213 111.754 250.722 110.514C252.231 109.274 253.517 110.836 253.517 110.836Z" fill="white" stroke="#263238" stroke-linecap="round" stroke-linejoin="round"/>
<path d="M245.726 112.761C245.726 112.761 247.823 109.671 249.302 108.684C250.781 107.696 254.743 106.7 255.708 107.324C256.673 107.949 255.832 108.56 255.832 108.56C255.832 108.56 256.692 109.428 255.955 109.919C255.218 110.41 251.766 111.903 251.766 111.903C251.766 111.903 254.842 111.779 255.228 112.399C255.614 113.019 255.416 113.391 254.768 113.391C254.12 113.391 252.671 113.281 251.919 113.281C251.277 113.327 250.644 113.454 250.034 113.658L253.002 114.254C253.002 114.254 253.705 114.631 252.893 115.246C252.082 115.861 250.044 114.814 249.826 114.814C249.609 114.814 249.332 116.436 247.353 117.244C245.374 118.053 243.801 117.567 244.014 115.677C244.086 115.1 244.275 114.543 244.569 114.041C244.863 113.54 245.257 113.104 245.726 112.761Z" fill="white" stroke="#263238" stroke-linecap="round" stroke-linejoin="round"/>
<path d="M255.832 108.56C255.832 108.56 254.219 108.842 252.765 109.219C251.744 109.554 250.781 110.046 249.911 110.677" fill="white"/>
<path d="M255.832 108.56C255.832 108.56 254.219 108.842 252.765 109.219C251.744 109.554 250.781 110.046 249.911 110.677" stroke="#263238" stroke-linecap="round" stroke-linejoin="round"/>
<path d="M251.785 111.898C251.271 111.85 250.752 111.894 250.252 112.027C249.554 112.24 249.07 112.404 249.07 112.404" fill="white"/>
<path d="M251.785 111.898C251.271 111.85 250.752 111.894 250.252 112.027C249.554 112.24 249.07 112.404 249.07 112.404" stroke="#263238" stroke-linecap="round" stroke-linejoin="round"/>
<path d="M242.124 108.728C242.124 108.728 244.939 108.232 247.135 111.173" stroke="#263238" stroke-linecap="round" stroke-linejoin="round"/>
<path d="M297.136 112.131C297.136 112.131 299.343 109.06 305.051 108.49" stroke="#263238" stroke-linecap="round" stroke-linejoin="round"/>
<path d="M301.554 114.993C301.532 115.616 301.328 116.22 300.967 116.728C300.606 117.237 300.104 117.627 299.523 117.851C298.942 118.075 298.308 118.123 297.7 117.988C297.093 117.853 296.538 117.542 296.105 117.093C295.673 116.645 295.381 116.078 295.267 115.465C295.154 114.851 295.222 114.218 295.465 113.643C295.708 113.068 296.114 112.578 296.633 112.233C297.152 111.889 297.761 111.705 298.383 111.704C298.807 111.711 299.225 111.802 299.613 111.971C300.002 112.14 300.353 112.384 300.648 112.69C300.942 112.995 301.174 113.356 301.329 113.751C301.485 114.146 301.561 114.568 301.554 114.993Z" fill="white" stroke="#263238" stroke-linecap="round" stroke-linejoin="round"/>
<path d="M292.007 109.874C292.007 109.874 290.523 108.039 289.261 108.386C288 108.733 285.799 111.049 286.15 111.506C286.501 111.962 286.699 112.151 287.797 111.506C288.895 110.861 289.538 110.315 289.904 110.514C290.152 110.732 290.353 111 290.495 111.299C290.636 111.598 290.714 111.924 290.725 112.255C290.725 112.9 290.542 113.743 289.736 114.001C288.93 114.259 287.263 114.368 285.433 114.273C283.602 114.179 284.151 116.019 286.531 116.203C288.214 116.29 289.902 116.198 291.566 115.93C292.297 116.226 293.067 116.411 293.852 116.481H294.767C295.584 117.196 296.617 117.615 297.7 117.671C299.347 117.671 300.08 115.747 299.348 113.906C298.615 112.066 294.495 110.603 293.946 110.434C293.397 110.266 292.007 109.874 292.007 109.874Z" fill="white" stroke="#263238" stroke-linecap="round" stroke-linejoin="round"/>
<path d="M294.386 111.253L292.007 109.874C292.007 109.874 287.98 112.17 288.544 113.177C289.108 114.184 289.642 113.544 290.834 112.904C292.026 112.265 292.482 112.076 292.482 112.076C292.482 112.076 294.48 112.721 294.386 111.253Z" fill="white" stroke="#263238" stroke-linecap="round" stroke-linejoin="round"/>
<path d="M296.706 111.878L294.327 110.504C294.327 110.504 290.295 112.795 290.864 113.807C291.433 114.819 291.967 114.174 293.154 113.529C294.341 112.885 294.802 112.706 294.802 112.706C294.802 112.706 296.8 113.346 296.706 111.878Z" fill="white" stroke="#263238" stroke-linecap="round" stroke-linejoin="round"/>
<path d="M297.893 112.984L295.811 111.788C295.811 111.788 291.784 114.085 292.348 115.092C292.912 116.099 293.446 115.459 294.638 114.819C295.83 114.179 296.286 113.991 296.286 113.991C296.606 114.089 296.94 114.136 297.275 114.13" fill="white"/>
<path d="M297.893 112.984L295.811 111.788C295.811 111.788 291.784 114.085 292.348 115.092C292.912 116.099 293.446 115.459 294.638 114.819C295.83 114.179 296.286 113.991 296.286 113.991C296.606 114.089 296.94 114.136 297.275 114.13" stroke="#263238" stroke-linecap="round" stroke-linejoin="round"/>
<path d="M279.754 77.5843C282.723 77.5843 285.131 75.4081 285.131 72.7235C285.131 70.039 282.723 67.8627 279.754 67.8627C276.784 67.8627 274.377 70.039 274.377 72.7235C274.377 75.4081 276.784 77.5843 279.754 77.5843Z" fill="#26B0FF" stroke="#263238" stroke-linecap="round" stroke-linejoin="round"/>
<path d="M262.905 88.159C262.905 88.159 262.905 92.752 263.331 95.103C263.756 97.4541 267.615 102.176 270.043 102.583C272.472 102.989 275.371 101.62 277.607 99.4827C279.843 97.345 281.446 92.008 281.564 91.6856C281.683 91.3632 280.605 88.4814 277.112 86.8794C270.039 83.6554 267.095 84.6325 265.067 85.5947C263.039 86.557 262.905 88.159 262.905 88.159Z" fill="white" stroke="#263238" stroke-linecap="round" stroke-linejoin="round"/>
<path d="M269.935 91.1499C269.979 91.2479 270.004 91.354 270.006 91.4617C270.009 91.5694 269.99 91.6765 269.95 91.7766C269.91 91.8767 269.851 91.9677 269.775 92.0441C269.699 92.1205 269.609 92.1808 269.509 92.2213C268.762 92.5387 268.233 93.6101 269.188 94.1408C269.407 94.303 269.677 94.3815 269.949 94.3625C270.221 94.3434 270.477 94.2279 270.672 94.0366" stroke="#263238" stroke-linecap="round" stroke-linejoin="round"/>
<path d="M268.975 96.0653C269.76 96.4266 270.633 96.5483 271.487 96.4151C272.34 96.2819 273.135 95.8998 273.773 95.3163" stroke="#263238" stroke-linecap="round" stroke-linejoin="round"/>
<path d="M275.158 90.3514C275.158 90.9118 274.896 91.3434 274.57 91.3434C274.243 91.3434 273.986 90.892 273.986 90.3514C273.986 89.8107 274.248 89.3594 274.57 89.3594C274.891 89.3594 275.158 89.776 275.158 90.3514Z" fill="#263238"/>
<path d="M268.02 89.9744C268.02 90.5349 267.758 90.9664 267.432 90.9664C267.105 90.9664 266.848 90.5101 266.848 89.9744C266.848 89.4387 267.11 88.9824 267.432 88.9824C267.753 88.9824 268.02 89.4139 268.02 89.9744Z" fill="#263238"/>
<path d="M262.401 80.6942C263.722 78.2285 265.68 76.1642 268.07 74.7174C271.864 72.5499 277.711 73.3138 279.694 75.2432C281.678 77.1726 283.32 79.9304 283.553 82.4501C283.785 84.9698 284.72 81.8648 275.02 81.2795C265.319 80.6942 262.341 81.3986 262.341 81.3986L262.401 80.6942Z" fill="#26B0FF" stroke="#263238" stroke-linecap="round" stroke-linejoin="round"/>
<path d="M262.559 89.28C262.559 89.28 263.009 87.1125 270.256 87.2166C277.503 87.3208 281.258 92.5387 281.366 93.0744C281.475 93.6101 283.79 94.9096 284.532 93.2034C285.274 91.4971 286.348 87.539 286.016 85.2971C285.685 83.0552 283.459 79.737 272.804 78.5614C262.149 77.3859 259.908 82.088 259.908 83.5859C259.908 85.0838 260.125 87.5539 260.551 88.7146C260.976 89.8752 262.559 89.28 262.559 89.28Z" fill="#26B0FF" stroke="#263238" stroke-linecap="round" stroke-linejoin="round"/>
<path d="M262.401 80.6942C262.401 80.6942 262.94 85.3963 263.158 86.1155" stroke="#263238" stroke-linecap="round" stroke-linejoin="round"/>
<path d="M265.893 79.6874C265.893 80.1834 266.541 84.7466 266.541 84.7466" stroke="#263238" stroke-linecap="round" stroke-linejoin="round"/>
<path d="M269.856 79.1864V81.4928" stroke="#263238" stroke-linecap="round" stroke-linejoin="round"/>
<path d="M278.71 80.4859L277.345 85.0342" stroke="#263238" stroke-linecap="round" stroke-linejoin="round"/>
<path d="M284.977 85.7534L283.681 89.0072" stroke="#263238" stroke-linecap="round" stroke-linejoin="round"/>
<path d="M270.019 89.8008C270.019 89.1141 269.816 88.4428 269.435 87.8719C269.055 87.3009 268.514 86.8559 267.881 86.5931C267.248 86.3303 266.552 86.2615 265.881 86.3955C265.209 86.5295 264.592 86.8602 264.108 87.3457C263.623 87.8313 263.294 88.4499 263.16 89.1234C263.026 89.7969 263.095 90.4951 263.357 91.1295C263.619 91.7639 264.063 92.3061 264.632 92.6877C265.202 93.0692 265.871 93.2728 266.556 93.2728C267.474 93.2728 268.355 92.907 269.005 92.2559C269.654 91.6047 270.019 90.7216 270.019 89.8008V89.8008Z" stroke="#263238" stroke-linecap="round" stroke-linejoin="round"/>
<path d="M277.671 89.8008C277.671 89.1141 277.468 88.4428 277.088 87.8719C276.707 87.3009 276.166 86.8559 275.534 86.5931C274.901 86.3303 274.205 86.2615 273.533 86.3955C272.861 86.5295 272.244 86.8602 271.76 87.3457C271.276 87.8313 270.946 88.4499 270.812 89.1234C270.679 89.7969 270.747 90.4951 271.009 91.1295C271.272 91.7639 271.715 92.3061 272.285 92.6877C272.854 93.0692 273.524 93.2728 274.209 93.2728C275.127 93.2728 276.008 92.907 276.657 92.2559C277.306 91.6047 277.671 90.7216 277.671 89.8008Z" stroke="#263238" stroke-linecap="round" stroke-linejoin="round"/>
<path d="M270.053 89.1907H270.756" stroke="#263238" stroke-linecap="round" stroke-linejoin="round"/>
<path d="M292.086 126.237L292.58 128.672C310.388 130.656 323.66 137.104 323.66 144.42C323.66 153.274 304.077 160.749 280.892 160.749C257.706 160.749 238.108 153.264 238.108 144.42C238.108 140.323 242.303 136.524 249.109 133.622L250.098 130.458C241.115 133.885 235.565 138.83 235.565 144.42C235.565 155 255.461 163.268 280.862 163.268C306.263 163.268 326.163 154.98 326.163 144.42C326.173 135.408 311.991 128.236 292.086 126.237Z" fill="white" stroke="#263238" stroke-linecap="round" stroke-linejoin="round"/>
<path d="M210.812 120.483L212.519 118.197L216.051 119.794L215.027 122.765L210.812 120.483Z" fill="#26B0FF" stroke="#263238" stroke-linecap="round" stroke-linejoin="round"/>
<path d="M167.509 147.56C167.509 147.56 165.802 148.473 165.684 154.187C165.565 159.9 167.85 161.498 168.879 161.726C169.631 161.894 183.912 161.815 191.347 161.76C195.28 161.736 198.515 158.412 198.188 154.484C198.15 154.035 198.065 153.591 197.936 153.16C196.679 149.043 196.041 148.051 196.041 148.051L167.509 147.56Z" fill="#26B0FF" stroke="#263238" stroke-linecap="round" stroke-linejoin="round"/>
<path d="M177.65 111.57C174.8 112.277 172.017 113.233 169.334 114.427C165.001 116.367 160.673 130.88 161.697 134.991C162.721 139.103 164.205 139.455 165.456 138.989C166.708 138.523 168.078 136.822 168.078 136.822C168.078 136.822 165.11 147.902 165.802 149.718C166.495 151.533 169.22 151.885 173.435 151.771C177.65 151.657 193.261 151.771 193.261 151.771C193.261 151.771 197.59 151.771 198.163 148.686C198.737 145.601 196.338 136.579 196.338 136.579C196.338 136.579 200.666 140.462 204.317 139.778C207.968 139.093 212.702 130.636 213.889 128.37C215.482 125.285 215.254 124.03 215.027 122.77C214.799 121.51 211.836 119.571 210.011 120.374C208.185 121.178 202.947 128.028 202.947 128.028C202.947 128.028 197.135 116.714 194.631 115.132C192.128 113.549 191.322 113.073 185.856 112.156C180.39 111.238 177.65 111.57 177.65 111.57Z" fill="#636363" stroke="#263238" stroke-linecap="round" stroke-linejoin="round"/>
<path d="M180.954 126.42L181.068 147.56" stroke="#263238" stroke-linecap="round" stroke-linejoin="round"/>
<path d="M195.087 134.877H186.766" stroke="#263238" stroke-linecap="round" stroke-linejoin="round"/>
<path d="M170.131 134.649H177.308" stroke="#263238" stroke-linecap="round" stroke-linejoin="round"/>
<path d="M171.951 141.846H176.967" stroke="#263238" stroke-linecap="round" stroke-linejoin="round"/>
<path d="M184.946 141.96H192.351" stroke="#263238" stroke-linecap="round" stroke-linejoin="round"/>
<path d="M205.91 126.535C205.91 126.535 208.418 129.392 210.698 129.848" stroke="#263238" stroke-linecap="round" stroke-linejoin="round"/>
<path d="M200.439 125.052C200.439 125.052 196.793 126.306 195.883 128.028" stroke="#263238" stroke-linecap="round" stroke-linejoin="round"/>
<path d="M183.234 127.68H193.147" stroke="#263238" stroke-linecap="round" stroke-linejoin="round"/>
<path d="M176.171 127.224H171.61" stroke="#263238" stroke-linecap="round" stroke-linejoin="round"/>
<path d="M196.338 136.593L195.542 124.481" stroke="#263238" stroke-linecap="round" stroke-linejoin="round"/>
<path d="M168.078 136.822C168.078 136.822 169.789 126.406 169.903 125.964" stroke="#263238" stroke-linecap="round" stroke-linejoin="round"/>
<path d="M202.947 128.023C202.947 128.023 202.037 130.309 202.037 132.02" stroke="#263238" stroke-linecap="round" stroke-linejoin="round"/>
<path d="M178.332 108.713C176.856 109.237 175.5 110.053 174.345 111.114C172.752 112.711 173.208 114.313 174.004 115.578C174.8 116.843 180.954 124.506 180.954 124.506C180.954 124.506 188.705 117.651 189.957 115.578C191.208 113.505 192.01 112.151 190.071 109.75C188.132 107.349 178.332 108.713 178.332 108.713Z" fill="#26B0FF" stroke="#263238" stroke-linecap="round" stroke-linejoin="round"/>
<path d="M177.991 110.082L178.446 114.313C178.446 114.313 180.385 118.881 181.068 118.425C181.75 117.969 184.6 114.427 185.06 113.396C185.52 112.364 186.197 107.915 186.197 107.915L178.332 108.713L177.991 110.082Z" fill="white" stroke="#263238" stroke-linecap="round" stroke-linejoin="round"/>
<path d="M192.732 85.7534C192.732 85.7534 194.453 81.225 202.838 82.6237C211.223 84.0224 208.858 97.6128 206.795 99.8746C204.733 102.136 208.626 103.108 209.59 101.71C209.59 101.71 209.699 104.512 205.633 105.911C201.567 107.31 197.357 106.774 195.314 100.951C193.271 95.1278 192.732 85.7534 192.732 85.7534Z" fill="#263238" stroke="#263238" stroke-linecap="round" stroke-linejoin="round"/>
<path d="M173.593 91.0358C173.593 91.0358 173.163 97.4838 172.733 99.7654C172.302 102.047 171.743 105.157 175.419 108.5C179.094 111.843 186.796 112.379 190.367 105.375C190.367 105.375 192.732 106.233 194.666 103.887C196.6 101.541 196.496 98.9272 195.205 96.1248C193.914 93.3224 188.537 90.6291 180.153 88.5806C171.768 86.5322 173.593 91.0358 173.593 91.0358Z" fill="white" stroke="#263238" stroke-linecap="round" stroke-linejoin="round"/>
<path d="M186.064 83.9182C186.064 83.9182 180.261 81.3291 175.849 83.2734C171.437 85.2178 171.12 91.5715 171.12 91.5715L177.551 92.9752L179.163 90.2819L178.842 93.0843L185.401 95.0237L186.39 92.6528L186.494 95.3461L189.289 96.7498C188.924 97.4042 188.81 98.1695 188.968 98.9024C189.043 99.3213 189.217 99.7161 189.476 100.054C189.734 100.392 190.068 100.664 190.452 100.847C190.452 100.847 191.208 98.58 193.464 99.2298C195.72 99.8795 194.216 104.19 193.355 104.944C192.495 105.698 190.348 105.375 190.348 105.375C190.348 105.375 192.495 106.367 193.682 105.807C194.869 105.246 198.411 102.032 198.52 95.7776C198.628 89.523 195.294 86.5074 191.743 84.8904C188.191 83.2734 186.064 83.9182 186.064 83.9182Z" fill="#263238" stroke="#263238" stroke-linecap="round" stroke-linejoin="round"/>
<path d="M177.462 101.06C177.55 101.415 177.76 101.729 178.054 101.945C178.349 102.162 178.71 102.268 179.074 102.245C180.365 102.136 180.692 101.601 180.692 101.601" stroke="#263238" stroke-linecap="round" stroke-linejoin="round"/>
<path d="M177.585 104.294C177.585 104.294 179.628 105.588 182.962 103.862" stroke="#263238" stroke-linecap="round" stroke-linejoin="round"/>
<path d="M182.626 102.895C182.626 102.895 183.056 104.512 184.021 104.835" stroke="#263238" stroke-linecap="round" stroke-linejoin="round"/>
<path d="M175.315 97.9352C175.68 97.7562 176.09 97.6913 176.492 97.7488C176.894 97.8062 177.27 97.9835 177.57 98.2576" stroke="#263238" stroke-linecap="round" stroke-linejoin="round"/>
<path d="M182.304 99.2298C182.304 99.2298 184.239 98.6891 184.99 99.8746" stroke="#263238" stroke-linecap="round" stroke-linejoin="round"/>
<path d="M178.322 95.8867C178.322 95.8867 177.031 94.1606 174.776 95.8867" stroke="#263238" stroke-linecap="round" stroke-linejoin="round"/>
<path d="M182.304 96.6406C182.304 96.6406 185.421 95.4552 186.39 98.58" stroke="#263238" stroke-linecap="round" stroke-linejoin="round"/>
<path d="M212.519 118.197C212.519 118.197 213.088 116.252 213.543 114.769C213.998 113.286 215.368 112.825 216.511 111.57C217.653 110.315 217.881 107.339 218.905 108.371C219.929 109.403 218.677 111.57 218.677 111.57L223.233 111.228C223.233 111.228 227.225 107.801 227.566 109.284C227.908 110.767 224.49 114.998 223.347 115.91C222.204 116.823 216.852 118.539 216.852 118.539L216.056 119.794L212.519 118.197Z" fill="white" stroke="#263238" stroke-linecap="round" stroke-linejoin="round"/>
<path d="M215.595 116.595C215.595 116.595 217.079 114.427 218.445 114.313C219.81 114.199 223.461 114.085 223.461 114.085C223.461 114.085 223.802 108.713 224.826 108.941C225.85 109.17 225.167 113.51 224.598 114.769C224.03 116.029 216.847 118.539 216.847 118.539" fill="white"/>
<path d="M215.595 116.595C215.595 116.595 217.079 114.427 218.445 114.313C219.81 114.199 223.461 114.085 223.461 114.085C223.461 114.085 223.802 108.713 224.826 108.941C225.85 109.17 225.167 113.51 224.598 114.769C224.03 116.029 216.847 118.539 216.847 118.539" stroke="#263238" stroke-linecap="round" stroke-linejoin="round"/>
<path d="M167.509 132.248C167.509 132.248 163.636 128.365 162.498 126.882C161.36 125.399 156.562 124.937 155.77 126.996C154.979 129.054 156.231 133.851 158.165 136.708C160.099 139.564 162.953 140.933 165.115 140.135C167.276 139.336 168.305 136.36 168.533 135.22" fill="#636363"/>
<path d="M167.509 132.248C167.509 132.248 163.636 128.365 162.498 126.882C161.36 125.399 156.562 124.937 155.77 126.996C154.979 129.054 156.231 133.851 158.165 136.708C160.099 139.564 162.953 140.933 165.115 140.135C167.276 139.336 168.305 136.36 168.533 135.22" stroke="#263238" stroke-linecap="round" stroke-linejoin="round"/>
<path d="M157.254 125.736C157.254 125.736 155.998 125.508 155.543 127.794C155.418 128.285 155.398 128.795 155.483 129.294C155.568 129.793 155.757 130.268 156.036 130.689C156.316 131.109 156.681 131.467 157.107 131.737C157.534 132.007 158.012 132.185 158.511 132.258C160.564 132.601 163.072 130.547 163.299 129.282C163.527 128.018 163.186 127.229 161.702 125.969C161.08 125.465 160.315 125.17 159.516 125.128C158.717 125.087 157.925 125.299 157.254 125.736Z" fill="#26B0FF" stroke="#263238" stroke-linecap="round" stroke-linejoin="round"/>
<path d="M160.331 115.226C160.331 115.226 159.649 110.653 161.924 110.082C164.2 109.512 165.57 110.424 165.57 110.424C165.57 110.424 164.086 112.255 164.66 113.167C165.233 114.08 166.371 112.939 166.371 112.939C166.371 112.939 166.713 114.199 167.395 114.541C168.078 114.884 168.993 113.396 168.993 113.396C168.993 113.396 169.676 114.085 170.017 113.167L170.358 112.255C170.358 112.255 171.951 113.624 171.155 116.595C170.699 118.345 169.649 119.881 168.187 120.94C168.187 120.94 168.988 124.937 168.187 125.964C167.385 126.991 158.956 124.937 158.293 123.335C157.63 121.733 161.261 116.823 161.261 116.823L160.331 115.226Z" fill="white" stroke="#263238" stroke-linecap="round" stroke-linejoin="round"/>
<path d="M159.535 115.112C159.535 115.112 158.847 110.539 161.128 109.968C163.408 109.398 164.773 110.31 164.773 110.31C164.773 110.31 163.289 112.141 163.863 113.053C164.437 113.966 165.57 112.825 165.57 112.825C165.57 112.825 165.916 114.085 166.599 114.427C167.281 114.769 168.192 113.281 168.192 113.281C168.192 113.281 168.879 113.971 169.22 113.053L169.562 112.141C169.562 112.141 171.155 113.51 170.358 116.481C169.902 118.231 168.853 119.767 167.39 120.826C167.39 120.826 168.187 124.823 167.39 125.85C166.594 126.877 158.16 124.823 157.497 123.221C156.834 121.619 160.465 116.709 160.465 116.709L159.535 115.112Z" fill="white" stroke="#263238" stroke-linecap="round" stroke-linejoin="round"/>
<path d="M157.254 128.137C157.254 128.137 155.657 122.537 155.088 120.597C154.788 119.654 154.843 118.633 155.242 117.728C155.641 116.822 156.357 116.095 157.254 115.682C159.189 114.769 160.786 114.194 160.559 115.226C160.331 116.257 158.392 116.714 157.823 117.17C157.453 117.479 157.114 117.823 156.809 118.197C156.809 118.197 159.085 116.937 160.455 116.709C161.825 116.481 162.389 117.74 161.251 118.425C160.114 119.109 159.085 119.338 158.402 120.022C158.006 120.411 157.696 120.879 157.492 121.396C157.492 121.396 159.545 120.136 161.024 119.908C162.503 119.68 162.963 119.908 162.275 120.712C161.588 121.515 160.114 122.08 159.545 122.423C159.129 122.75 158.813 123.186 158.63 123.683C158.63 123.683 162.963 121.396 162.622 122.537C162.28 123.678 160.227 124.709 160.227 124.709C160.624 125.106 160.882 125.621 160.964 126.176C161.046 126.732 160.947 127.299 160.683 127.794C159.777 129.62 157.937 129.277 157.254 128.137Z" fill="white" stroke="#263238" stroke-linecap="round" stroke-linejoin="round"/>
<path d="M177.442 161.2C177.442 161.2 178.53 152.5 174.81 149.703C172.367 147.863 165.51 146.905 164.12 154.663C162.73 162.42 167.529 187.29 167.37 189.621C167.212 191.952 167.529 194.437 166.905 196.148C166.17 198.17 164.814 199.907 163.032 201.108C160.866 202.661 161.172 203.906 164.585 204.679C167.999 205.453 178.065 204.679 178.065 204.679C178.065 204.679 179.46 203.439 178.837 200.329C178.214 197.22 178.218 192.393 178.065 190.543C177.912 188.693 177.442 161.2 177.442 161.2Z" fill="white" stroke="#263238" stroke-linecap="round" stroke-linejoin="round"/>
<path d="M164.585 204.714C167.994 205.493 178.065 204.714 178.065 204.714C178.065 204.714 179.46 203.474 178.837 200.364C178.502 198.361 178.303 196.338 178.243 194.308H175.894C175.894 194.308 174.964 188.401 171.555 189.179C168.662 189.839 167.558 192.959 167.291 193.886C167.274 194.663 167.144 195.434 166.905 196.173C166.17 198.195 164.814 199.932 163.032 201.133C160.866 202.695 161.172 203.94 164.585 204.714Z" fill="white" stroke="#263238" stroke-linecap="round" stroke-linejoin="round"/>
<path d="M169.542 203.162C165.54 203.162 163.225 202.601 161.979 202.12C161.157 203.221 161.924 204.104 164.585 204.714C167.994 205.493 178.065 204.714 178.065 204.714C178.607 204.107 178.923 203.331 178.96 202.517C175.841 202.967 172.693 203.182 169.542 203.162Z" fill="white" stroke="#263238" stroke-linecap="round" stroke-linejoin="round"/>
<path d="M174.81 149.718C172.367 147.877 165.511 146.92 164.121 154.678C163.037 160.704 165.713 177.072 166.856 185.142H177.902C177.704 176.606 177.442 161.215 177.442 161.215C177.442 161.215 178.53 152.515 174.81 149.718Z" fill="#26B0FF" stroke="#263238" stroke-linecap="round" stroke-linejoin="round"/>
<path d="M192.331 160.392C192.331 160.392 192.237 151.627 188.176 149.356C185.505 147.868 178.589 147.843 178.253 155.729C177.917 163.616 186.019 187.597 186.168 189.928C186.316 192.26 186.969 194.68 186.588 196.456C186.131 198.564 185.021 200.473 183.417 201.912C181.478 203.742 181.933 204.932 185.436 205.245C188.938 205.557 198.792 203.42 198.792 203.42C198.792 203.42 200.004 201.996 198.975 199.005C197.946 196.014 197.293 191.238 196.887 189.408C196.482 187.577 192.331 160.392 192.331 160.392Z" fill="white" stroke="#263238" stroke-linecap="round" stroke-linejoin="round"/>
<path d="M185.446 205.235C188.908 205.547 198.802 203.415 198.802 203.415C198.802 203.415 200.014 201.991 198.985 199C198.38 197.059 197.909 195.079 197.575 193.073L195.25 193.39C195.25 193.39 193.533 187.667 190.264 188.926C187.479 189.968 186.801 193.212 186.667 194.164C186.756 194.936 186.732 195.716 186.598 196.48C186.141 198.589 185.031 200.498 183.427 201.936C181.488 203.737 181.963 204.927 185.446 205.235Z" fill="white" stroke="#263238" stroke-linecap="round" stroke-linejoin="round"/>
<path d="M190.15 203.028C186.192 203.568 183.813 203.325 182.512 203.028C181.849 204.228 182.73 205.012 185.446 205.245C188.908 205.557 198.802 203.424 198.802 203.424C199.256 202.748 199.465 201.936 199.395 201.123C196.365 201.989 193.275 202.625 190.15 203.028Z" fill="white" stroke="#263238" stroke-linecap="round" stroke-linejoin="round"/>
<path d="M188.176 149.356C185.505 147.868 178.59 147.843 178.253 155.729C177.991 161.85 182.814 177.672 185.06 185.534L196.007 184.046C194.661 175.614 192.331 160.396 192.331 160.396C192.331 160.396 192.237 151.627 188.176 149.356Z" fill="#26B0FF" stroke="#263238" stroke-linecap="round" stroke-linejoin="round"/>
<path d="M129.177 91.9534C129.648 91.426 130.273 91.0621 130.963 90.9141C131.653 90.7661 132.372 90.8417 133.016 91.1301" stroke="#263238" stroke-linecap="round" stroke-linejoin="round"/>
<path d="M109.217 147.56C109.217 147.56 107.511 148.473 107.397 154.187C107.283 159.9 109.564 161.498 110.588 161.726C111.612 161.954 137.478 161.726 137.478 161.726C137.478 161.726 140.896 157.262 139.644 153.16C138.393 149.058 137.755 148.051 137.755 148.051L109.217 147.56Z" fill="#263238" stroke="#263238" stroke-linecap="round" stroke-linejoin="round"/>
<path d="M111.532 112.508C111.532 112.508 108.594 114.392 107.367 117.011C106.141 119.63 98.0083 133.379 98.0924 135.259C98.1765 137.139 109.816 133.474 109.816 133.474C109.816 133.474 108.332 145.512 108.505 146.578C108.678 147.644 109.494 148.299 111.122 148.066C112.749 147.833 137.75 148.066 137.75 148.066C138.191 147.648 138.536 147.138 138.762 146.573C138.987 146.008 139.088 145.4 139.056 144.792C138.972 142.66 135.87 128.246 135.87 128.246L141.341 136.028C141.341 136.028 143.547 137.089 145.016 136.107C146.486 135.125 147.628 130.87 146.812 127.918C145.996 124.967 143.547 124.233 139.219 117.438C134.891 110.643 129.326 110.067 129.326 110.067C129.326 110.067 125.566 108.51 118.542 109.328C111.518 110.147 111.532 112.508 111.532 112.508Z" fill="#26B0FF" stroke="#263238" stroke-linecap="round" stroke-linejoin="round"/>
<path d="M109.984 130.527L111.369 120.945" stroke="#263238" stroke-linecap="round" stroke-linejoin="round"/>
<path d="M135.875 128.231L135.222 125.939L134.975 119.467" stroke="#263238" stroke-linecap="round" stroke-linejoin="round"/>
<path d="M117.988 105.792C117.988 105.792 115.371 107.022 114.639 107.92C113.907 108.817 111.532 109.15 110.637 110.787C110.371 111.226 110.21 111.721 110.167 112.233C110.125 112.745 110.201 113.26 110.39 113.738C110.39 113.738 115.208 115.538 121.174 117.83C127.139 120.121 129.014 118.732 130.399 116.838C131.784 114.943 133.342 112.825 133.506 111.268C133.669 109.71 132.689 108.485 129.993 107.012C127.298 105.539 121.193 104.562 117.988 105.792Z" fill="#26B0FF" stroke="#263238" stroke-linecap="round" stroke-linejoin="round"/>
<path d="M133.911 87.1174C133.911 87.1174 135.712 88.9229 134.975 90.9664C134.238 93.0099 134.812 95.227 135.549 95.475C136.286 95.723 138.245 95.3907 137.671 97.3549C137.533 97.903 137.287 98.4178 136.947 98.8685C136.608 99.3193 136.181 99.6969 135.692 99.9787C135.692 99.9787 134.876 104.234 133.976 105.871C133.075 107.508 130.79 107.022 129.974 107.022C129.537 107.017 129.101 107.043 128.668 107.101L126.541 118.405C126.541 118.405 126.214 119.893 121.723 114.229C117.231 108.564 117.968 107.592 117.968 107.592L115.495 95.7181C115.495 95.7181 111.904 89.0022 119.744 85.0739C127.584 81.1456 133.911 87.1174 133.911 87.1174Z" fill="white" stroke="#263238" stroke-linecap="round" stroke-linejoin="round"/>
<path d="M127.129 88.288C127.129 88.288 129.034 90.6886 126.828 91.76C125.515 92.3924 124.242 93.1029 123.014 93.8878L123.434 96.5216L121.317 95.4155C121.317 95.4155 121.836 97.464 122.079 97.712C122.321 97.96 121.317 99.329 121.317 99.329L116.919 98.5354L117.503 104.428L113.655 97.3896C113.655 97.3896 110.875 96.0008 109.895 91.4128C108.916 86.8248 114.387 80.7637 120.352 79.4542C126.318 78.1448 129.172 78.8838 133.011 80.6843C135.361 81.8412 137.237 83.7802 138.319 86.1701L136.528 85.0739C136.528 85.0739 137.755 88.0202 137.671 88.5112C137.587 89.0022 132.853 87.8565 132.853 87.8565L133.995 89.905C133.995 89.905 130.157 88.288 127.129 88.288Z" fill="#263238" stroke="#263238" stroke-linecap="round" stroke-linejoin="round"/>
<path d="M121.49 99.8894C121.49 99.8894 119.373 96.4621 117.572 95.8917C115.772 95.3213 115.099 98.8379 116.84 100.886C118.581 102.935 121.154 102.097 121.154 102.097" fill="white"/>
<path d="M121.49 99.8894C121.49 99.8894 119.373 96.4621 117.572 95.8917C115.772 95.3213 115.099 98.8379 116.84 100.886C118.581 102.935 121.154 102.097 121.154 102.097" stroke="#263238" stroke-linecap="round" stroke-linejoin="round"/>
<path d="M131.547 94.4483C131.547 95.0584 131.27 95.5544 130.933 95.5544C130.597 95.5544 130.32 95.0584 130.32 94.4483C130.32 93.8382 130.592 93.3422 130.933 93.3422C131.275 93.3422 131.547 93.8382 131.547 94.4483Z" fill="#263238"/>
<path d="M129.993 99.8944C129.993 99.8944 130.81 101.779 133.995 101.204" stroke="#263238" stroke-linecap="round" stroke-linejoin="round"/>
<path d="M128.688 107.101C128.688 107.101 123.785 105.792 122.316 104.071C122.316 104.071 122.479 105.216 124.359 108.331C125.263 109.933 126.36 111.417 127.624 112.751L128.688 107.101Z" fill="#263238" stroke="#263238" stroke-linecap="round" stroke-linejoin="round"/>
<path d="M111.3 129.198C110.83 128.896 110.297 128.708 109.742 128.65C109.187 128.591 108.627 128.664 108.104 128.861C105.503 129.853 100.684 131.643 99.6308 132C98.1468 132.496 97.1575 134.456 97.2614 136.832C97.3653 139.207 98.4832 141.008 101.506 140.68C104.528 140.353 109.608 137.833 111.082 136.797C111.955 136.184 112.607 135.306 112.942 134.292L112.858 130.195L111.3 129.198Z" fill="#26B0FF" stroke="#263238" stroke-linecap="round" stroke-linejoin="round"/>
<path d="M112.838 130.195C112.838 130.195 116.598 130.279 118.151 130.279C119.704 130.279 122.722 133.637 122.722 133.88C122.722 134.123 121.99 134.292 121.99 134.292H112.923L112.838 130.195Z" fill="white" stroke="#263238" stroke-linecap="round" stroke-linejoin="round"/>
<path d="M115.317 130.245C114.011 130.245 112.843 130.195 112.843 130.195L112.927 134.292H115.401L115.317 130.245Z" fill="#26B0FF" stroke="#263238" stroke-linecap="round" stroke-linejoin="round"/>
<path d="M134.515 134.158H112.977C112.422 134.158 111.973 134.609 111.973 135.165V148.517C111.973 149.073 112.422 149.524 112.977 149.524H134.515C135.069 149.524 135.519 149.073 135.519 148.517V135.165C135.519 134.609 135.069 134.158 134.515 134.158Z" fill="white" stroke="#263238" stroke-linecap="round" stroke-linejoin="round"/>
<path d="M145.595 109.998C145.595 109.998 145.808 108.917 143.978 107.721C142.147 106.526 140.045 107.354 139.313 107.816L138.581 108.272C138.581 108.272 140.139 109.264 140.139 110.474C140.139 111.684 139.496 112.766 138.215 112.954L136.934 113.138C137.041 113.845 137.348 114.506 137.819 115.043C138.29 115.58 138.905 115.971 139.59 116.168C140.705 116.548 141.913 116.557 143.033 116.193C144.153 115.83 145.127 115.113 145.808 114.149C147.089 112.309 145.595 109.998 145.595 109.998Z" fill="white" stroke="#263238" stroke-linecap="round" stroke-linejoin="round"/>
<path d="M140.589 123.603C140.589 123.603 139.001 119.05 139.432 118.147C139.862 117.244 142.281 116.843 142.281 116.843C142.281 116.843 140.159 114.541 141.163 114.125C142.167 113.708 143.973 116.56 143.973 116.56C143.973 116.56 142.36 113.341 142.603 112.304C142.845 111.268 143.849 111.848 144.087 112.389C144.324 112.929 145.496 115.861 145.496 115.861C145.496 115.861 145.002 113.381 144.863 112.562C144.725 111.744 144.032 110.048 144.73 109.765C145.427 109.482 145.66 110.355 145.66 110.355C145.721 110.236 145.812 110.135 145.925 110.062C146.038 109.99 146.168 109.949 146.302 109.943C146.435 109.938 146.568 109.968 146.687 110.031C146.805 110.093 146.905 110.187 146.975 110.3C147.698 111.178 148.355 115.136 148.113 116.173C147.871 117.21 142.222 120.563 142.222 120.563L143.681 122.889L140.589 123.603Z" fill="white" stroke="#263238" stroke-linecap="round" stroke-linejoin="round"/>
<path d="M145.679 110.38C145.679 110.38 147.262 113.936 147.287 115.593L145.679 110.38Z" fill="white"/>
<path d="M145.679 110.38C145.679 110.38 147.262 113.936 147.287 115.593" stroke="#263238" stroke-linecap="round" stroke-linejoin="round"/>
<path d="M144.368 120.617L138.813 122.09L139.224 124.139L144.616 122.824L144.368 120.617Z" fill="#26B0FF" stroke="#263238" stroke-linecap="round" stroke-linejoin="round"/>
<path d="M139.224 124.139C139.224 124.139 138.408 124.382 138.408 125.776C138.408 127.169 139.55 133.88 139.956 135.358C140.362 136.836 140.945 138.305 144.205 138.141C147.465 137.977 148.781 136.747 148.781 134.947C148.781 133.146 146.308 124.382 146.085 123.316C145.862 122.249 144.601 122.82 144.601 122.82L139.224 124.139Z" fill="#26B0FF" stroke="#263238" stroke-linecap="round" stroke-linejoin="round"/>
<path d="M123.123 185.38C123.123 185.38 124.147 162.301 123.236 156.017C123.035 154.445 122.328 152.983 121.223 151.85C117.073 147.62 109.974 150.149 109.133 156.022C109.055 156.587 109.007 157.157 108.99 157.728C108.762 166.071 111.725 186.407 111.725 186.407C111.725 186.407 110.133 187.662 110.815 188.921C111.185 189.508 111.418 190.171 111.498 190.861C111.498 190.861 110.474 192.121 110.701 192.805C110.929 193.49 111.157 194.635 111.157 194.635L111.498 195.434C111.498 195.434 111.839 197.492 110.246 199.898C108.654 202.304 107.511 202.983 107.738 204.699C107.966 206.415 115.485 206.753 118.448 206.187C121.411 205.622 123.123 205.389 123.805 204.248C124.488 203.107 123.805 193.961 123.805 193.961C124.089 193.188 124.28 192.384 124.374 191.565C124.374 190.762 123.919 190.305 124.033 189.963C124.147 189.621 124.943 189.849 125.17 188.366C125.398 186.883 123.123 185.38 123.123 185.38Z" fill="white" stroke="#263238" stroke-linecap="round" stroke-linejoin="round"/>
<path d="M124.374 191.55C124.374 190.747 123.919 190.29 124.033 189.948C124.146 189.606 124.943 189.834 125.17 188.351C125.398 186.868 123.123 185.375 123.123 185.375C123.123 185.375 124.146 162.296 123.236 156.012C123.035 154.441 122.328 152.978 121.223 151.845C117.073 147.615 109.974 150.144 109.133 156.017C109.055 156.583 109.007 157.152 108.99 157.723C108.762 166.066 111.725 186.402 111.725 186.402C111.725 186.402 110.133 187.657 110.815 188.916C111.185 189.503 111.418 190.166 111.498 190.856C111.498 190.856 110.474 192.116 110.701 192.8C110.929 193.485 111.157 194.63 111.157 194.63L111.498 195.429C111.408 194.994 111.405 194.545 111.488 194.109C111.571 193.672 111.739 193.257 111.983 192.886C112.226 192.514 112.54 192.195 112.907 191.945C113.274 191.696 113.686 191.521 114.12 191.431C117.424 190.514 119.704 192.572 120.056 194.169C120.407 195.766 121.648 194.63 123.815 193.941C124.095 193.169 124.283 192.367 124.374 191.55Z" fill="#263238" stroke="#263238" stroke-linecap="round" stroke-linejoin="round"/>
<path d="M123.805 204.233C123.962 203.833 124.044 203.408 124.048 202.978C121.828 203.973 119.486 204.663 117.083 205.032C113.768 205.468 109.524 204.699 107.714 204.317C107.715 204.442 107.723 204.566 107.738 204.689C107.966 206.4 115.485 206.743 118.448 206.177C121.411 205.612 123.123 205.374 123.805 204.233Z" fill="white" stroke="#263238" stroke-linecap="round" stroke-linejoin="round"/>
<path d="M123.35 189.15C123.35 189.15 111.384 187.548 113.323 188.123C115.262 188.698 119.704 189.611 119.704 189.611" stroke="#263238" stroke-linecap="round" stroke-linejoin="round"/>
<path d="M127.209 185.38C127.209 185.38 126.185 162.301 127.095 156.017C127.296 154.445 128.003 152.983 129.108 151.85C133.258 147.62 140.357 150.149 141.198 156.022C141.278 156.587 141.326 157.157 141.341 157.728C141.569 166.071 138.606 186.407 138.606 186.407C138.606 186.407 140.203 187.662 139.516 188.921C139.146 189.508 138.913 190.171 138.833 190.861C138.833 190.861 139.857 192.121 139.63 192.805C139.402 193.49 139.174 194.635 139.174 194.635L138.833 195.434C138.833 195.434 138.492 197.492 140.085 199.898C141.678 202.304 142.82 202.983 142.593 204.699C142.365 206.415 134.846 206.753 131.883 206.187C128.92 205.622 127.209 205.389 126.526 204.248C125.843 203.107 126.526 193.961 126.526 193.961C126.242 193.188 126.051 192.384 125.957 191.565C125.957 190.762 126.412 190.305 126.298 189.963C126.185 189.621 125.388 189.849 125.161 188.366C124.933 186.883 127.209 185.38 127.209 185.38Z" fill="white" stroke="#263238" stroke-linecap="round" stroke-linejoin="round"/>
<path d="M125.957 191.55C125.957 190.747 126.412 190.29 126.298 189.948C126.185 189.606 125.388 189.834 125.161 188.351C124.933 186.868 127.209 185.375 127.209 185.375C127.209 185.375 126.185 162.296 127.095 156.012C127.296 154.441 128.003 152.978 129.108 151.845C133.258 147.615 140.357 150.144 141.198 156.017C141.278 156.582 141.326 157.152 141.341 157.723C141.569 166.066 138.606 186.402 138.606 186.402C138.606 186.402 140.203 187.657 139.516 188.916C139.146 189.503 138.913 190.166 138.833 190.856C138.833 190.856 139.857 192.116 139.63 192.8C139.402 193.485 139.174 194.63 139.174 194.63L138.833 195.429C138.923 194.994 138.926 194.545 138.843 194.109C138.76 193.672 138.592 193.257 138.348 192.886C138.105 192.514 137.791 192.195 137.424 191.945C137.057 191.696 136.645 191.521 136.211 191.431C132.907 190.514 130.632 192.572 130.275 194.169C129.919 195.766 128.683 194.63 126.516 193.941C126.236 193.169 126.048 192.367 125.957 191.55Z" fill="#263238" stroke="#263238" stroke-linecap="round" stroke-linejoin="round"/>
<path d="M126.526 204.233C126.369 203.833 126.287 203.408 126.283 202.978C128.503 203.972 130.846 204.663 133.248 205.032C136.563 205.468 140.807 204.699 142.622 204.317C142.619 204.442 142.609 204.566 142.593 204.689C142.365 206.4 134.846 206.743 131.883 206.177C128.92 205.612 127.208 205.374 126.526 204.233Z" fill="white" stroke="#263238" stroke-linecap="round" stroke-linejoin="round"/>
<path d="M126.981 189.15C126.981 189.15 138.947 187.548 137.013 188.123C135.079 188.698 130.632 189.611 130.632 189.611" stroke="#263238" stroke-linecap="round" stroke-linejoin="round"/>
<path d="M244.929 180.946C244.929 180.946 246.171 181.253 246.013 186.536C245.854 191.818 239.661 200.384 238.266 201.609C236.871 202.834 228.348 203.315 228.348 203.315L229.436 199.898C229.436 199.898 235.169 200.364 236.856 199.124C238.543 197.884 242.589 187.934 242.748 185.142C242.906 182.349 241.66 179.393 241.66 179.393L244.929 180.946Z" fill="#636363" stroke="#263238" stroke-linecap="round" stroke-linejoin="round"/>
<path d="M228.041 176.75C228.041 176.75 239.508 175.663 241.368 176.903C243.228 178.143 244.929 180.946 244.929 180.946C244.929 180.946 237.183 180.792 234.239 181.1C231.296 181.407 229.743 181.566 229.743 181.566L228.041 176.75Z" fill="#263238" stroke="#263238" stroke-linecap="round" stroke-linejoin="round"/>
<path d="M244.464 206.579C244.464 206.579 243.381 207.512 240.279 206.892C237.178 206.272 231.761 203.94 229.743 204.412C227.725 204.883 225.87 205.185 225.87 205.185L231.915 201.302C231.915 201.302 235.634 201.46 238.578 203.167C241.521 204.873 244.929 204.099 244.929 204.099L244.464 206.579Z" fill="#636363" stroke="#263238" stroke-linecap="round" stroke-linejoin="round"/>
<path d="M233.775 182.498C233.775 182.498 243.668 196.947 246.636 199.898C249.604 202.849 248.802 203.162 247.254 204.714C245.706 206.267 243.534 208.29 242.604 206.425C241.674 204.56 243.381 202.542 240.744 199.124C238.108 195.707 232.068 190.732 232.068 190.732L233.775 182.498Z" fill="#263238" stroke="#263238" stroke-linecap="round" stroke-linejoin="round"/>
<path d="M230.055 177.216C230.055 177.216 222.462 173.486 219.518 171.933C217.988 171.107 216.239 170.783 214.515 171.006C212.792 171.23 211.182 171.989 209.912 173.178C206.944 175.817 205.109 185.762 205.109 185.762L197.689 193.202C195.675 195.226 194.721 198.658 196.452 200.508C198.183 202.358 207.918 209.362 213.958 210.14C219.998 210.919 229.293 207.963 231.469 206.098C233.646 204.233 233.794 203.459 233.636 195.846C233.478 188.232 235.496 184.661 234.259 181.085C233.023 177.508 230.055 177.216 230.055 177.216Z" fill="#26B0FF" stroke="#263238" stroke-linecap="round" stroke-linejoin="round"/>
<path d="M228.66 179.701C225.87 181.412 225.098 185.449 224.633 193.842C224.633 193.842 223.703 202.388 221.532 204.094C219.36 205.8 212.39 207.358 213.167 208.756C213.503 209.367 214.428 209.882 215.838 210.279C221.774 210.349 229.496 207.799 231.45 206.113C233.616 204.248 233.775 203.474 233.616 195.86C233.458 188.247 235.476 184.676 234.24 181.1C233.974 180.307 233.559 179.573 233.018 178.937C231.286 178.902 229.649 179.096 228.66 179.701Z" fill="white" stroke="#263238" stroke-linecap="round" stroke-linejoin="round"/>
<path d="M230.055 177.216C230.055 177.216 222.462 173.486 219.518 171.933C217.988 171.107 216.239 170.783 214.515 171.006C212.792 171.23 211.182 171.989 209.912 173.178C206.944 175.817 205.109 185.762 205.109 185.762C204.955 186.694 204.797 189.026 212.855 193.842C220.913 198.658 221.532 198.802 223.392 197.105C225.251 195.409 225.405 192.145 225.716 185.142C226.028 178.138 232.845 179.235 232.845 179.235L233.141 179.091C232.377 178.107 231.278 177.44 230.055 177.216Z" fill="white" stroke="#263238" stroke-linecap="round" stroke-linejoin="round"/>
<path d="M211.925 173.952C209.6 176.432 206.978 185.916 206.978 185.916C206.978 185.916 208.373 189.492 214.893 192.131C221.413 194.769 222.175 195.394 222.808 192.443C223.441 189.492 222.185 182.186 225.281 179.393C226.559 178.266 228.084 177.459 229.733 177.037C228.185 176.273 222.12 173.283 219.563 171.933C219.518 171.933 214.25 171.467 211.925 173.952Z" fill="#26B0FF" stroke="#263238" stroke-linecap="round" stroke-linejoin="round"/>
<path d="M221.225 189.566C221.197 189.914 221.069 190.246 220.855 190.522C220.642 190.798 220.354 191.006 220.025 191.119C219.696 191.233 219.341 191.249 219.003 191.164C218.666 191.079 218.36 190.897 218.124 190.64C217.888 190.384 217.732 190.064 217.674 189.72C217.616 189.376 217.66 189.022 217.799 188.703C217.939 188.383 218.168 188.111 218.459 187.92C218.751 187.729 219.091 187.627 219.439 187.627C219.932 187.648 220.397 187.863 220.731 188.227C221.066 188.59 221.244 189.072 221.225 189.566Z" fill="white" stroke="#263238" stroke-linecap="round" stroke-linejoin="round"/>
<path d="M212.776 184.75C212.747 185.097 212.618 185.427 212.405 185.702C212.192 185.976 211.904 186.182 211.576 186.295C211.248 186.408 210.894 186.422 210.558 186.337C210.222 186.252 209.918 186.07 209.683 185.814C209.448 185.558 209.292 185.239 209.235 184.896C209.178 184.553 209.222 184.201 209.361 183.883C209.5 183.564 209.729 183.293 210.019 183.103C210.309 182.912 210.648 182.811 210.995 182.811C211.487 182.833 211.951 183.049 212.284 183.412C212.618 183.776 212.795 184.257 212.776 184.75Z" fill="white" stroke="#263238" stroke-linecap="round" stroke-linejoin="round"/>
<path d="M202.472 189.333C202.472 189.333 202.472 189.492 209.758 194.616C217.045 199.739 220.146 200.21 220.146 200.21C218.433 200.655 216.808 201.391 215.343 202.388C213.177 203.94 213.018 205.027 213.018 205.027L198.292 194.928C198.292 194.928 197.98 192.751 202.472 189.333Z" fill="white" stroke="#263238" stroke-linecap="round" stroke-linejoin="round"/>
<path d="M60.4087 144.123C60.4087 144.123 58.3954 151.563 57.0005 154.688C55.6055 157.812 51.7323 160.749 52.5089 161.681C53.2855 162.614 57.9502 162.455 58.5537 162.301C59.1572 162.147 63.5004 155.466 63.5004 155.466L60.4087 144.123Z" fill="#263238" stroke="#263238" stroke-linecap="round" stroke-linejoin="round"/>
<path d="M91.2462 140.239C91.2462 140.239 86.7497 134.337 83.3315 130.76C79.9134 127.184 66.2903 132.005 61.7937 134.024C57.2972 136.043 59.4688 146.3 59.9338 150.025C60.3988 153.75 59.4688 161.056 60.8638 161.835C62.2587 162.614 92.6313 162.614 94.9562 161.989C97.2811 161.364 99.4478 160.436 97.7412 155.62C96.0346 150.804 92.6313 144.901 92.2998 143.969C91.9684 143.036 91.2462 140.239 91.2462 140.239Z" fill="#26B0FF" stroke="#263238" stroke-linecap="round" stroke-linejoin="round"/>
<path d="M79.4682 136.043C79.4682 136.043 68.6251 138.22 65.9886 139.307C63.352 140.393 62.892 141.325 63.9753 145.209C65.0586 149.093 65.3702 161.522 66.7652 161.835C67.8368 162.038 68.9246 162.142 70.0151 162.147L94.9661 161.989C94.9661 161.989 98.8394 163.7 98.5277 158.264C98.2161 152.828 94.8078 147.54 91.1077 142.416C87.4076 137.293 85.978 133.87 79.4682 136.043Z" fill="#263238" stroke="#263238" stroke-linecap="round" stroke-linejoin="round"/>
<path d="M87.2147 141.018C87.2147 141.018 69.5551 145.834 68.6251 145.978L67.6951 146.132L68.4668 150.174L88.6096 144.579L87.2147 141.018Z" fill="#26B0FF" stroke="#263238" stroke-linecap="round" stroke-linejoin="round"/>
<path d="M61.4969 152.356L63.8219 152.823C63.8219 152.823 62.1153 145.675 62.1153 141.95C62.1153 138.225 63.6636 137.288 66.1419 136.494C68.6202 135.701 78.0732 133.077 81.4765 133.077C83.5815 133.115 85.6079 133.884 87.2097 135.254C87.2097 135.254 84.5781 131.212 83.3365 130.746C82.0949 130.279 71.4051 132.298 66.9136 134.163C62.422 136.028 60.562 136.643 60.4037 138.672C60.2454 140.7 61.4969 152.356 61.4969 152.356Z" fill="white" stroke="#263238" stroke-linecap="round" stroke-linejoin="round"/>
<path d="M89.3447 206.442C97.3427 204.549 102.296 196.514 100.408 188.494C98.5207 180.474 90.5067 175.508 82.5087 177.4C74.5107 179.293 69.5573 187.329 71.445 195.348C73.3327 203.368 81.3467 208.335 89.3447 206.442Z" fill="#26B0FF" stroke="#263238" stroke-linecap="round" stroke-linejoin="round"/>
<path d="M91.5133 199.184C89.734 198.529 87.8536 198.193 85.9582 198.192C82.0814 198.159 78.331 199.573 75.4366 202.16" stroke="#263238" stroke-linecap="round" stroke-linejoin="round"/>
<path d="M96.5689 202.274C95.5415 201.324 94.3858 200.524 93.1359 199.898" stroke="#263238" stroke-linecap="round" stroke-linejoin="round"/>
<path d="M79.7056 192.552C81.6795 193.373 83.7964 193.793 85.9335 193.787C91.8942 193.787 97.0387 190.603 99.4082 186.005" stroke="#263238" stroke-linecap="round" stroke-linejoin="round"/>
<path d="M73.1464 187.19C74.3335 188.973 75.9037 190.466 77.7418 191.56" stroke="#263238" stroke-linecap="round" stroke-linejoin="round"/>
<path d="M71.5041 193.852C76.1171 195.581 81.0091 196.44 85.9335 196.386C90.5612 196.429 95.162 195.678 99.5368 194.164" stroke="#263238" stroke-linecap="round" stroke-linejoin="round"/>
</svg>